<?xml version="1.0" encoding="UTF-8" standalone="no"?>
<!-- Created with Inkscape (http://www.inkscape.org/) -->

<svg
   xmlns:dc="http://purl.org/dc/elements/1.1/"
   xmlns:cc="http://creativecommons.org/ns#"
   xmlns:rdf="http://www.w3.org/1999/02/22-rdf-syntax-ns#"
   xmlns:svg="http://www.w3.org/2000/svg"
   xmlns="http://www.w3.org/2000/svg"
   xmlns:sodipodi="http://sodipodi.sourceforge.net/DTD/sodipodi-0.dtd"
   xmlns:inkscape="http://www.inkscape.org/namespaces/inkscape"
   width="248.0495"
   height="172.03125"
   id="svg3129"
   version="1.1"
   inkscape:version="0.48.1 r9760"
   sodipodi:docname="New document 2">
  <defs
     id="defs3131" />
  <sodipodi:namedview
     id="base"
     pagecolor="#ffffff"
     bordercolor="#666666"
     borderopacity="1.0"
     inkscape:pageopacity="0.0"
     inkscape:pageshadow="2"
     inkscape:zoom="0.35"
     inkscape:cx="179.73369"
     inkscape:cy="-91.127583"
     inkscape:document-units="px"
     inkscape:current-layer="layer1"
     showgrid="false"
     fit-margin-top="0"
     fit-margin-left="0"
     fit-margin-right="0"
     fit-margin-bottom="0"
     inkscape:window-width="449"
     inkscape:window-height="413"
     inkscape:window-x="806"
     inkscape:window-y="71"
     inkscape:window-maximized="0" />
  <metadata
     id="metadata3134">
    <rdf:RDF>
      <cc:Work
         rdf:about="">
        <dc:format>image/svg+xml</dc:format>
        <dc:type
           rdf:resource="http://purl.org/dc/dcmitype/StillImage" />
        <dc:title></dc:title>
      </cc:Work>
    </rdf:RDF>
  </metadata>
  <g
     inkscape:label="Layer 1"
     inkscape:groupmode="layer"
     id="layer1"
     transform="translate(-41.690011,-269.20335)">
    <g
       transform="translate(27.752511,18.07835)"
       id="Ebene_4">
      <g
         id="g62">
        <path
           style="fill:#bd148c;fill-rule:evenodd;stroke:#bd148c;stroke-width:0.1489"
           inkscape:connector-curvature="0"
           clip-rule="evenodd"
           d="m 91.597,307.502 c 0.722,2.078 -0.25,4.122 -1.117,5.524 -1.467,2.37 -3.659,4.431 -4.537,7.151 1.83,0.401 3.489,0.578 5.263,1.312 1.008,0.416 2.112,1.181 3.248,1.658 2.838,1.194 5.543,2.146 7.319,4.656 1.658,0.515 3.264,2.11 4.628,3.641 2.66,2.983 4.285,5.573 5.798,10.398 0.454,1.45 1.44,3.666 1.139,5.726 -1.494,-0.373 -1.533,-2.044 -2.01,-3.059 -0.39,-0.826 -1.017,-1.563 -1.455,-2.413 -1.747,-3.386 -2.967,-6.331 -5.616,-8.504 -1.661,-1.362 -3.348,-3.097 -5.209,-4.43 -0.788,-0.563 -1.862,-1.021 -2.817,-1.733 -0.886,-0.661 -1.912,-1.432 -2.673,-1.759 -0.774,-0.333 -1.723,-0.296 -2.475,-0.608 -2.159,-0.894 -4.129,-2.365 -6.566,-2.862 -2.291,1.453 -2.462,4.235 -3.773,6.429 -0.315,0.526 -1.052,0.879 -1.383,1.424 -0.409,0.672 -0.321,1.534 -0.633,2.331 -0.436,1.109 -1.406,2.148 -1.803,3.273 -0.163,0.461 -0.052,0.986 -0.207,1.368 -0.46,1.13 -2.664,3.339 -2.155,4.666 0.388,1.01 4.341,1.593 5.386,2.03 1.819,0.761 3.11,0.809 5.693,1.235 2.673,0.443 5.8,1.243 8.898,0.09 -0.009,-4.417 -2.141,-8.716 -2.471,-11.716 2.26,-1.102 2.827,1.712 4.023,2.711 1.317,3.022 1.505,8.458 4.372,9.016 0.405,1.211 -1.085,1.086 -1.139,1.974 0.807,5.829 1.462,11.549 0.918,16.425 1.767,1.531 4.219,-2.466 6.063,-0.901 -0.682,2.172 -3.652,2.728 -6.022,3.708 -1.602,5.494 -1.897,11.566 -3.275,17.003 -0.79,3.116 -3.689,6.065 -2.914,9.684 2.844,-0.331 7.511,-1.248 10.95,-1.746 0.872,-0.126 1.886,-0.741 2.519,0.008 -0.416,1.969 -3.828,3.389 -6.403,4.07 -3.225,0.853 -7.806,0.233 -10.158,2.054 -1.543,1.193 -0.568,3.788 -3.239,3.521 -0.334,-1.328 0.836,-1.599 0.533,-2.906 -1.856,-0.309 -3.47,0.923 -5.438,1.09 -0.742,0.063 -1.521,-0.24 -2.256,-0.202 -0.881,0.047 -1.737,0.37 -2.587,0.447 -1.348,0.125 -2.589,-0.237 -3.888,-0.214 -0.869,0.016 -1.91,0.515 -2.875,0.497 -0.541,-0.011 -1.818,-0.866 -2.475,-0.608 -1.157,0.453 -0.642,2.352 -0.385,3.769 0.197,1.084 0.001,2.317 0.116,3.237 0.693,5.484 2.947,11.377 3.773,16.671 -0.398,0.266 -1.075,0.337 -1.699,0.442 -1.37,-3.638 -3.729,-7.566 -4.896,-12.034 -0.451,-1.725 -0.478,-3.591 -0.921,-5.32 -0.251,-0.978 -0.854,-1.815 -1.072,-2.775 -0.388,-1.704 0.278,-3.577 -0.728,-5.058 -1.573,-0.433 -3.035,-0.051 -4.655,-0.379 -0.82,-0.164 -1.667,-0.592 -2.499,-0.751 -1.016,-0.194 -2.044,-0.055 -2.856,-0.247 -2.11,-0.499 -3.756,-2.529 -6.154,-2.191 -0.407,1.101 0.379,3.044 -0.528,3.792 -1.032,0.207 -1.527,-1.151 -1.954,-1.883 -0.74,-1.269 -1.704,-2.208 -2.184,-4.063 -3.853,-2.534 -8.506,-3.931 -12.489,-6.279 0.028,2.112 1.761,3.418 2.597,4.732 1.112,1.75 1.841,3.534 2.958,5.115 1.993,2.821 4.933,4.755 7.576,6.981 1.657,1.396 4.073,2.503 4.444,5.153 -1.594,0.466 -2.591,-1.014 -3.848,-1.704 -1.764,-0.966 -3.766,-1.563 -5.342,-2.629 -0.441,-0.299 -0.778,-0.901 -1.255,-1.264 -0.716,-0.54 -1.729,-0.71 -2.286,-1.232 -0.748,-0.701 -1.212,-1.962 -1.867,-3.083 -0.738,-1.265 -1.971,-2.229 -2.633,-3.246 -0.327,-0.501 -0.435,-1.169 -0.73,-1.649 -1.473,-2.388 -3.253,-4.176 -4.526,-6.474 -1.284,-2.317 -2.777,-4.822 -3.574,-7.821 -0.142,-0.534 -0.072,-1.196 -0.299,-1.725 -0.279,-0.653 -1.17,-1.277 -1.835,-2.052 -0.661,-0.769 -1.095,-1.643 -1.599,-2.388 -0.506,-0.751 -1.358,-1.317 -1.861,-2.196 -1.153,-2.018 -1.541,-4.504 -1.556,-7.282 2.772,0.187 3.179,3.729 5.283,4.86 0.92,-0.755 0.175,-1.982 0.128,-2.688 -0.064,-0.934 0.012,-2.205 0.171,-3.286 0.572,-3.893 1.753,-7.975 3.047,-11.484 0.518,-1.4 1.312,-2.558 1.128,-3.749 -0.354,-2.318 -3.391,-3.261 -2.557,-6.221 2.059,-0.954 2.429,2.272 4.067,2.11 1.158,-0.116 1.286,-1.628 1.809,-2.387 0.776,-1.127 2.046,-1.75 2.139,-3.036 2.382,-2.222 4.024,-4.796 6.313,-7.162 2.101,-2.173 4.206,-3.799 7.304,-5.707 0.688,-0.422 1.268,-1.119 1.959,-1.522 0.938,-0.547 2.307,-0.912 3.444,-1.484 1.092,-0.55 2.022,-1.381 2.965,-1.698 2.227,-0.748 4.674,-1.156 6.657,-1.744 0.933,-0.277 2.055,-0.437 3.019,-0.522 4.845,-0.429 10.28,-0.411 14.011,0.536 1.752,0.447 4.275,1.681 5.143,1.479 0.936,-0.216 1.229,-1.729 1.901,-2.697 0.597,-0.855 1.55,-1.841 2.31,-2.917 1.5,-2.129 3.32,-4.321 5.504,-5.839 0.236,-0.167 1.161,-0.807 1.841,-0.468 z m -15.386,13.767 c -4.388,0.171 -9.317,-0.73 -14.531,0.739 -1.216,0.343 -2.366,1.16 -3.589,1.509 -0.624,0.177 -1.3,0.13 -1.868,0.324 -0.808,0.274 -1.44,1.006 -2.296,1.284 -2.452,0.801 -3.503,1.61 -5.332,2.553 -1.305,0.669 -2.722,0.891 -3.877,1.559 -0.78,0.45 -1.322,1.201 -2.076,1.691 -0.557,0.361 -1.215,0.476 -1.769,0.898 -0.677,0.515 -1.24,1.424 -2.002,2.123 -0.745,0.685 -1.394,1.4 -2.003,2.123 -1.379,1.635 -3.09,2.958 -4.147,4.272 -0.641,0.799 -0.88,1.837 -1.471,2.622 -0.973,1.295 -2.199,2.214 -2.613,3.711 4.015,4.748 8.184,9.278 13.981,11.5 1.186,-1.604 1.56,-3.841 2.506,-6.061 0.601,-1.412 2.084,-3.112 3.016,-4.816 0.83,-1.52 1.472,-3.227 2.441,-4.717 1.047,-1.607 1.875,-3.28 2.755,-4.622 0.602,-0.921 1.764,-1.855 1.757,-2.675 -0.013,-1.718 -4.223,-7.447 -2.306,-8.188 2.916,-1.127 3.234,5.088 5.334,5.147 1.551,-0.482 2.553,-3.021 4.376,-2.09 0.14,2.075 -2.296,2.336 -2.877,3.903 1.127,1.265 2.431,2.614 3.858,3.479 1.92,1.16 4.142,2.5 6.805,2.522 2.093,-4.456 3.595,-9.329 5.598,-13.851 1.246,-1.393 2.153,-3.026 2.704,-4.909 -0.767,-0.519 -1.576,-0.06 -2.374,-0.03 z M 57.053,338.06 c -0.157,0.098 -0.298,0.208 -0.381,0.361 -1.419,1.847 -1.48,4.343 -2.405,6.635 -0.985,2.443 -3.361,6.109 -4.407,8.759 -0.164,0.416 -0.158,1.128 -0.326,1.537 -0.659,1.608 -2.579,3.901 -2.248,4.979 0.186,0.604 1.819,1.082 2.768,1.445 4.819,1.848 10.627,2.546 15.372,3.264 0.575,-1.113 0.956,-2.105 1.271,-3.773 0.212,-1.125 0.032,-3.746 1.44,-3.656 0.661,0.044 1.076,1.226 1.16,1.576 0.509,2.116 -1.055,4.28 -0.273,6.119 4.434,1.695 9.808,0.348 14.925,0.675 0.737,0.047 1.429,0.495 2.161,0.514 3.105,0.08 6.221,-0.837 9.369,-1.473 0.72,-1.827 0.194,-3.742 0.182,-5.806 -0.023,-3.499 0.96,-7.165 -0.623,-11.294 -1.945,-0.048 -3.448,0.599 -5.2,0.751 -1.134,0.1 -2.249,-0.313 -3.456,-0.29 -0.767,0.015 -1.582,0.43 -2.443,0.424 -0.824,-0.007 -1.736,-0.404 -2.618,-0.584 -0.828,-0.17 -1.766,-0.299 -2.736,-0.415 -1.716,-0.204 -4.299,-1.194 -5.306,-0.711 -1.601,0.769 -1.181,3.289 -1.961,4.93 -1.255,0.411 -1.417,2.151 -2.745,2.104 -0.697,-3.109 1.162,-5.484 0.688,-8.855 -4.418,-1.912 -8.026,-4.97 -12.208,-7.216 z m -32.219,18.309 c -0.541,1.799 -0.466,3.579 -0.517,5.567 -0.058,2.198 -0.522,4.401 -0.513,6.456 0.021,4.945 1.576,7.215 4.447,9.448 2.836,2.202 5.592,4.398 8.933,5.413 0.978,0.583 1.706,1.52 3.08,1.539 0.781,-2.271 -0.232,-3.88 -0.231,-6.476 -0.001,-0.554 0.406,-1.102 0.444,-1.705 0.152,-2.359 -0.475,-5.786 -0.123,-8.418 0.192,-1.454 1.524,-4.161 1.142,-5.38 -0.21,-0.67 -2.014,-1.604 -2.892,-2.165 -1.262,-0.809 -2.607,-1.227 -3.273,-1.803 -2.707,-2.338 -5.405,-5.351 -8.131,-7.625 -0.096,0.016 -0.191,0.033 -0.287,0.05 -0.821,1.415 -1.525,3.254 -2.079,5.099 z m 26.571,10.653 c -1.531,-0.991 -3.049,-2.003 -5.122,-2.223 -2.341,6.009 -2.249,14.401 -0.989,22.529 5.378,2.46 10.743,4.936 17.521,5.408 0.648,-3.864 0.011,-7.696 0.24,-11.444 0.1,-1.62 0.879,-3.145 0.955,-4.754 0.132,-2.786 0.387,-4.762 0.53,-7.2 -4.286,-0.903 -8.994,-1.209 -13.135,-2.316 z m 16.858,3.302 c -1.519,6.797 -0.697,15.245 -0.744,23.079 2.867,0.699 6.429,1.335 9.917,1.69 2.009,0.204 3.941,-0.208 6.306,-0.352 1.922,-0.117 4.641,0.188 6.089,-0.757 0.474,-0.311 1.253,-2.205 1.635,-3.393 1.102,-3.442 1.483,-5.62 2.412,-9.154 0.498,-1.89 1.051,-4.098 1.117,-5.524 0.033,-0.687 -0.195,-1.372 -0.153,-1.749 0.167,-1.53 1.143,-3.865 0.348,-5.688 -2.868,-0.447 -5.484,0.689 -8.269,0.986 -2.06,0.221 -4.15,-0.248 -6.237,-0.104 -1.594,0.11 -3.221,0.847 -4.888,0.846 -0.807,0 -1.543,-0.439 -2.45,-0.465 -1.591,-0.045 -3.238,0.285 -4.725,0.078 -0.194,0.116 -0.312,0.285 -0.358,0.507 z"
           id="path64" />
      </g>
      <g
         id="g66">
        <path
           style="fill:#84ba08;fill-rule:evenodd;stroke:#84ba08;stroke-width:0.1181"
           inkscape:connector-curvature="0"
           clip-rule="evenodd"
           d="m 93.052,304.508 c 1.497,-1.548 3.485,-2.716 5.382,-3.638 0.959,-0.465 1.869,-1.1 2.63,-1.464 0.86,-0.411 2.108,-0.448 2.404,-1.167 0.271,-0.666 -0.385,-2.843 -0.512,-4.301 -0.271,-3.104 0.424,-7.449 1.396,-11.263 0.194,-0.759 0.469,-1.634 0.812,-2.343 0.728,-1.508 1.373,-3.409 2.262,-5.092 0.374,-0.71 1.161,-1.347 1.741,-2.146 0.606,-0.834 1.076,-1.88 1.635,-2.559 0.413,-0.499 1.046,-0.872 1.472,-1.364 1.929,-2.228 3.502,-3.696 5.512,-5.091 2.188,-1.52 4.459,-2.497 6.544,-4.109 1.041,0.094 1.702,-0.839 2.704,-1.313 0.674,-0.319 1.898,-0.223 2.142,-1.135 0.344,-1.286 -2.186,-2.004 -1.155,-3.522 2.474,-0.281 2.831,2.268 4.637,2.853 0.928,0.302 1.956,-0.182 3.142,-0.412 2.972,-0.577 6.387,-0.986 9.571,-0.938 0.885,0.014 1.91,0.119 2.648,0.291 0.556,0.131 1.438,0.886 2.163,0.249 -0.632,-1.829 -3.407,-2.615 -3.194,-4.854 2.218,0.374 4.151,1.006 5.613,2.193 0.637,0.516 0.979,1.269 1.513,1.771 0.53,0.5 1.171,0.96 1.698,1.588 0.532,0.631 0.915,1.425 1.4,1.734 0.393,0.247 0.931,0.279 1.34,0.462 2.291,1.028 4.097,2.546 5.781,3.876 1.669,1.314 2.866,2.972 4.581,4.458 0.345,0.3 0.866,0.473 1.224,0.799 0.725,0.662 1.336,1.771 2.249,2.527 0.81,0.67 1.757,1.204 2.219,1.892 0.345,0.515 0.349,1.347 0.688,1.987 0.227,0.429 0.664,0.776 0.845,1.169 0.646,1.397 0.862,3.074 1.404,4.608 0.388,1.095 1.439,2.084 0.859,3.296 -2.068,-0.643 -2.638,-2.716 -3.537,-4.223 -1.434,-2.4 -2.597,-5.003 -4.589,-6.961 -1.118,-1.098 -2.449,-1.914 -3.701,-3.03 -0.942,-0.838 -1.758,-2.393 -3.442,-2.689 1.356,3.487 1.867,7.386 3.388,10.793 1.42,0.627 2.045,1.519 2.963,2.274 0.526,0.437 1.548,1.009 1.249,1.808 -0.717,0.627 -2.166,-0.255 -3.101,-0.073 -0.582,1.873 0.826,3.451 0.95,5.203 0.048,0.673 -0.198,1.477 -0.175,2.313 0.018,0.686 0.249,1.417 0.274,2.094 0.05,1.338 -0.445,2.456 -0.304,3.77 1.05,0.997 2.634,0.709 3.945,1.24 0.738,0.299 1.329,0.89 2.076,1.219 1.325,0.579 2.812,0.844 4.129,1.428 3.418,1.516 6.249,3.912 8.976,5.479 -0.164,0.486 -0.309,1.017 -0.574,1.301 -4.121,-1.35 -8.535,-3.918 -12.826,-5.187 -0.719,-0.213 -1.729,-0.216 -2.57,-0.515 -1.1,-0.39 -2.547,-1.049 -3.061,-0.185 -0.291,0.49 0.227,1.623 0.163,2.056 -0.111,0.773 -0.646,1.541 -0.772,2.231 -0.188,1.035 -0.059,2.074 -0.334,3.134 -0.172,0.669 -0.543,1.312 -0.695,2.01 -0.125,0.582 0.016,1.244 -0.132,1.828 -0.391,1.551 -1.584,2.679 -1.579,4.202 1.005,0.412 1.372,-0.487 2.391,-0.047 -0.135,2.169 -2.08,1.051 -3.235,2.128 -1.76,1.643 -1.861,5.383 -2.965,7.847 -0.879,1.967 -2.459,4.51 -4.085,4.586 -0.518,-0.604 0.106,-1.333 0.32,-2.014 0.848,-2.683 2.188,-6.292 2.823,-8.521 -2.79,-1.09 -5.523,0.84 -8.116,1.065 -4.522,0.393 -9.41,-0.163 -14.01,0.403 -1.092,1.764 -1.923,4.064 -3.745,4.326 -1.01,-1.679 2.502,-3.114 1.51,-4.728 -3.966,-0.199 -8.45,-1.469 -13.001,-2.873 -0.716,-0.071 -0.811,1.134 -1.727,0.653 -0.07,-2.364 -4.39,-3.222 -6.632,-4.668 -0.642,-1.086 -2.815,-1.905 -1.639,-3.567 2.353,0.655 5.508,2.917 9.034,3.501 1.326,-2.325 1.094,-4.927 1.089,-7.12 -0.004,-2.119 0.125,-3.156 -0.244,-4.71 -0.213,-0.89 -0.166,-4.126 -0.92,-4.566 -0.993,-0.578 -3.047,0.894 -4.009,1.112 -0.326,0.074 -0.73,-0.082 -1.12,-0.012 -0.95,0.17 -1.907,0.811 -2.851,1.014 -0.677,0.146 -1.354,-0.037 -1.943,0.202 -0.479,0.193 -0.857,0.734 -1.317,0.917 -1.923,0.764 -4.169,0.538 -5.627,2.178 0.078,2.011 0.997,3.777 1.43,5.618 0.151,0.642 -0.001,1.396 0.164,2.057 0.162,0.65 0.645,1.571 1.056,2.363 0.445,0.856 0.671,1.774 1.018,2.478 0.823,1.66 1.988,3.233 2.86,4.738 1.39,2.4 3.584,3.758 6.061,5.596 0.621,0.461 1.129,1.058 1.738,1.476 0.749,0.514 2.078,0.763 2.182,2.005 -1.686,-0.028 -3.326,-1.104 -4.426,-1.656 -3.658,-1.837 -5.515,-3.473 -7.551,-5.986 -1.045,-1.29 -2.11,-2.78 -2.306,-4.171 -1.773,-1.746 -2.181,-4.03 -2.766,-6.456 -0.232,-0.968 -0.7,-1.95 -0.901,-2.811 -0.354,-1.511 -0.278,-2.859 -0.361,-4.373 -2.288,0.346 -4.22,1.829 -6.305,2.692 -1.232,0.51 -2.992,1.02 -4.559,0.172 -0.182,-0.586 0.45,-1.241 0.614,-1.41 z m 12.107,-7.183 c 1.576,-0.194 2.999,-0.706 4.274,-1.52 3.872,-1.012 7.961,-1.577 11.796,-2.667 0.327,-2.132 -0.453,-4.079 -1.131,-5.765 -0.505,-1.254 -1.411,-2.471 -2.274,-3.536 -1.33,0.26 -1.854,2.172 -3.495,1.79 -0.505,-1.579 1.652,-2.047 2.241,-3.224 0.226,-1.685 -4.697,-2.749 -3.418,-4.932 0.842,-1.435 4.869,2.676 6.242,2.91 0.651,0.11 1.55,-0.694 2.363,-1.058 1.188,-0.526 2.632,-0.97 4.052,-1.598 1.317,-0.58 2.764,-0.869 4.086,-1.334 1.483,-0.521 3.035,-1.486 4.24,-1.782 1.897,-0.466 3.733,-0.473 5.168,-1.212 -1.018,-4.92 -4.094,-8.842 -7.363,-12.668 -1.25,0.138 -2.143,0.996 -3.305,1.605 -0.704,0.37 -1.565,0.424 -2.287,0.833 -1.188,0.673 -2.467,1.868 -3.953,2.756 -0.658,0.393 -1.313,0.816 -1.955,1.322 -0.658,0.518 -1.46,0.85 -1.958,1.322 -0.411,0.389 -0.587,0.899 -0.95,1.296 -0.489,0.539 -1.159,0.874 -1.62,1.438 -0.686,0.838 -1.045,1.939 -1.752,2.895 -0.99,1.339 -1.772,2.073 -2.733,3.929 -0.334,0.646 -1.001,1.056 -1.326,1.664 -0.229,0.43 -0.277,0.977 -0.501,1.451 -0.438,0.933 -1.241,1.743 -1.674,2.67 -1.854,3.975 -1.776,8.029 -2.484,11.512 -0.129,0.634 -0.602,1.222 -0.283,1.903 z M 125.525,293 c 2.631,0.816 4.771,-0.358 7.163,0.604 -0.135,1.068 -1.546,0.97 -2.038,1.919 -1.413,0.409 -3.371,-0.255 -4.193,0.924 -0.519,0.741 -0.063,2.935 -0.125,4.33 -0.033,0.791 -0.051,1.557 -0.024,2.24 0.029,0.728 0.228,1.509 0.126,2.167 -0.109,0.69 -0.546,1.287 -0.657,1.897 -0.177,0.962 0.009,1.906 -0.218,2.799 -0.352,1.38 -1.063,2.496 -1.279,4.057 3.093,1.802 6.149,1.495 8.94,1.969 1.646,0.278 3.107,0.949 4.661,0.613 0.919,-2.433 2.057,-4.803 2.398,-7.293 0.081,-0.587 -0.187,-1.2 -0.13,-1.794 0.408,-4.132 2.184,-8.247 1.407,-12.01 -1.367,-0.864 -3.3,0.103 -4.924,-0.578 -0.27,-0.114 -1.16,-0.601 -1.106,-1.134 0.111,-1.137 2.181,-0.65 3.107,-0.674 1.374,-0.035 2.214,-0.21 3.179,-0.524 0.046,-3.884 0.245,-8.613 -0.602,-12.705 -0.168,-0.805 -0.337,-2.171 -0.795,-2.397 -0.817,-0.405 -2.9,0.828 -4.271,1.146 -0.349,0.081 -0.917,-0.018 -1.27,0.061 -2.253,0.49 -5.491,1.909 -7.571,2.379 -1.951,0.44 -3.953,0.164 -5.614,1.057 -0.131,0.045 -0.239,0.145 -0.338,0.258 1.25,3.629 3.221,6.911 4.174,10.689 z m 10.308,-33.047 c -0.025,0.075 -0.051,0.148 -0.077,0.224 1.462,2.473 3.516,5.021 5.031,7.489 0.373,0.606 0.532,1.736 1.013,2.85 0.336,0.775 0.847,2.336 1.354,2.592 0.923,0.465 3.259,-0.245 4.446,-0.211 2.148,0.063 4.804,1.01 6.709,1.197 0.486,0.046 0.978,-0.206 1.42,-0.135 2.072,0.338 3.226,1.357 5.142,1.03 0.163,-1.101 -0.49,-1.804 -0.828,-2.662 -0.375,-2.8 -1.77,-5.287 -3.16,-7.842 -1.409,-2.583 -3.02,-4.122 -6.968,-4.783 -1.64,-0.274 -3.46,-0.192 -5.224,-0.433 -1.596,-0.217 -3.007,-0.51 -4.516,-0.313 -1.544,0.204 -3.106,0.526 -4.342,0.997 z m 9.529,32.414 c 1.967,0.201 3.578,0.255 5.821,0.513 1.295,0.148 2.614,-0.274 3.922,-0.142 3.024,0.304 6.003,1.312 9.173,1.299 0.506,-5.476 -0.773,-10.085 -2.036,-14.7 -6.328,-2.066 -13.021,-3.233 -18.126,-2.148 -0.095,1.688 0.517,3.03 1.107,4.383 0.347,3.453 -0.024,7.253 0.139,10.795 z m -0.149,3.32 c -0.027,1.215 -0.507,2.487 -0.678,3.765 -0.098,0.728 0.155,1.374 0.051,2.019 -0.216,1.331 -1.016,2.533 -1.312,3.793 -0.389,1.65 -0.285,3.381 -0.729,4.997 -0.601,2.185 -1.85,4.126 -1.866,6.477 1.352,0.872 3.344,0.398 4.588,0.463 0.307,0.016 0.824,0.288 1.379,0.352 1.147,0.133 2.982,-0.021 4.558,-0.172 2.943,-0.281 4.734,-0.302 7.627,-0.735 0.998,-0.15 2.614,-0.526 2.924,-0.863 0.943,-1.034 1.054,-3.245 1.398,-4.765 0.423,-1.869 1.003,-3.36 1.101,-4.991 0.173,-2.835 0.13,-5.762 -0.056,-8.143 -6.266,-0.983 -12.906,-2.741 -18.534,-2.413 -0.183,0.005 -0.332,0.078 -0.451,0.216 z"
           id="path68" />
      </g>
      <g
         id="g70">
        <path
           style="fill:#ef7d00;fill-rule:evenodd;stroke:#ef7d00;stroke-width:0.1459"
           inkscape:connector-curvature="0"
           clip-rule="evenodd"
           d="m 91.651,305.948 c -1.311,0.129 -2.365,-0.723 -3.061,-1.424 -1.175,-1.186 -2.069,-2.751 -3.53,-3.644 -0.491,1.009 -0.825,1.95 -1.499,2.881 -0.385,0.529 -0.985,1.065 -1.422,1.66 -1.093,1.486 -2.025,2.929 -3.735,3.611 -0.533,0.894 -1.687,1.605 -2.769,2.186 -2.109,1.133 -3.847,1.717 -6.868,1.921 -0.908,0.063 -2.336,0.326 -3.493,-0.138 0.426,-0.817 1.404,-0.606 2.062,-0.743 0.535,-0.11 1.054,-0.372 1.609,-0.508 2.218,-0.545 4.103,-0.844 5.739,-2.081 1.025,-0.777 2.271,-1.518 3.309,-2.414 0.438,-0.381 0.855,-0.942 1.404,-1.398 0.509,-0.424 1.101,-0.913 1.398,-1.311 0.302,-0.405 0.413,-0.962 0.7,-1.356 0.822,-1.132 1.956,-2.074 2.585,-3.424 -0.523,-1.537 -2.121,-2.026 -3.214,-3.098 -0.263,-0.257 -0.365,-0.734 -0.638,-1.004 -0.334,-0.332 -0.847,-0.402 -1.269,-0.695 -0.585,-0.409 -1.054,-1.12 -1.653,-1.509 -0.247,-0.159 -0.567,-0.167 -0.769,-0.313 -0.594,-0.425 -1.572,-2.018 -2.416,-1.907 -0.642,0.085 -1.535,2.306 -1.936,2.854 -0.698,0.953 -0.907,1.698 -1.518,3.142 -0.632,1.496 -1.535,3.204 -1.297,5.172 2.574,0.612 5.376,-0.028 7.168,0.199 0.327,1.471 -1.392,1.407 -2.141,1.964 -1.945,0.344 -5.137,-0.307 -5.862,1.286 -0.762,0.065 -0.482,-0.784 -0.99,-0.94 -3.508,-0.346 -6.932,-0.766 -9.694,-1.764 -1.139,0.814 0.845,2.8 -0.324,3.657 -1.169,-0.701 -1.077,-2.51 -1.316,-4.026 -2.977,-1.703 -6.471,-2.726 -9.444,-4.289 -1.705,-0.896 -3.017,-2.997 -5.232,-3.052 -0.204,1.702 -0.324,4.549 -0.516,6.622 -0.048,0.525 0.169,1.202 -0.358,1.466 -1.087,-0.519 -1.437,-2.704 -1.473,-4.299 -0.046,-1.998 0.956,-4.579 0.225,-6.203 -0.479,-1.066 -2.126,-0.861 -1.597,-2.38 0.821,-0.009 0.813,0.709 1.618,0.717 0.439,-1.037 -0.052,-2.15 0.126,-3.32 0.066,-0.44 0.353,-0.852 0.434,-1.285 0.096,-0.52 0.028,-1.063 0.101,-1.57 0.117,-0.801 0.503,-1.473 0.67,-2.232 0.112,-0.509 -0.032,-1.186 0.113,-1.744 0.082,-0.314 0.759,-0.938 0.7,-1.356 -0.103,-0.737 -1.28,-0.702 -2.141,-0.751 -0.66,-0.038 -1.351,-0.326 -1.901,-0.387 -3.292,-0.363 -7.038,0.125 -10.238,-0.135 -0.1,-0.27 -0.045,-0.674 -0.02,-1.053 2.31,-0.287 4.929,-1.111 7.694,-1.167 1.066,-0.021 2.156,0.225 3.228,0.209 0.604,-0.01 1.176,-0.244 1.766,-0.236 1.047,0.012 2.045,0.663 3.048,0.284 0.473,-0.855 0.455,-1.761 0.871,-2.658 0.213,-0.454 0.579,-0.889 0.789,-1.352 0.255,-0.563 0.316,-1.182 0.543,-1.628 0.586,-1.159 1.998,-1.833 2.138,-3.277 -0.584,-0.392 -1.826,-0.206 -2.135,-0.838 0.023,-0.631 0.885,-0.729 1.37,-0.876 0.843,-0.254 1.525,-0.682 2.672,-0.703 2.016,-1.889 3.479,-4.402 5.405,-6.394 -1.234,-0.28 -2.237,0.546 -3.12,0.85 -1.175,0.402 -2.316,0.578 -3.394,1.007 -1.921,0.766 -3.46,2.207 -5.125,3.435 -1.046,0.771 -2.028,2.021 -3.624,1.869 -0.048,-0.996 0.953,-1.369 1.53,-2.004 0.81,-0.892 1.438,-1.975 2.279,-2.743 0.235,-0.216 0.635,-0.326 0.911,-0.554 0.415,-0.341 0.657,-0.908 1.038,-1.16 0.514,-0.339 1.312,-0.431 2.057,-0.655 0.84,-0.254 1.574,-0.836 2.26,-1.08 0.337,-0.12 0.742,-0.089 1.063,-0.194 1.597,-0.523 2.888,-1.311 4.402,-1.729 1.53,-0.424 3.198,-0.942 5.056,-0.987 0.331,-0.008 0.708,0.126 1.047,0.068 0.42,-0.072 0.908,-0.503 1.451,-0.782 0.541,-0.277 1.11,-0.407 1.614,-0.598 0.509,-0.19 0.958,-0.606 1.54,-0.775 1.336,-0.39 2.84,-0.269 4.458,0.113 -0.495,1.588 -2.615,1.329 -3.569,2.396 0.311,0.642 1.131,0.38 1.547,0.45 0.554,0.095 1.284,0.316 1.892,0.561 2.187,0.879 4.398,2.137 6.262,3.382 0.743,0.497 1.306,1.12 2.025,1.183 1.399,0.117 2.374,-1.52 3.98,-0.62 0.269,1.333 -1.663,1.097 -1.798,2.074 -0.094,0.69 0.769,0.977 1.137,1.387 0.549,0.61 0.732,1.438 1.469,1.671 0.961,1.699 2.23,3.015 3.288,4.679 0.972,1.527 1.624,2.981 2.302,5.054 0.149,0.458 0.475,0.894 0.612,1.352 0.188,0.624 0.21,1.473 0.384,2.215 0.167,0.713 0.521,1.371 0.573,1.965 0.124,1.401 0.02,2.883 0.084,4.121 0.031,0.583 -0.033,1.258 -0.118,1.831 -0.428,2.882 -1.199,6.046 -2.273,8.085 -0.505,0.959 -1.577,2.255 -1.582,2.789 -0.005,0.574 0.836,0.957 1.305,1.484 0.417,0.468 0.855,1.16 1.378,1.753 1.028,1.173 2.05,2.539 2.629,4.023 0.063,0.157 0.307,0.785 0.014,1.135 z M 85.786,295.06 c 0.515,-2.58 1.73,-5.324 1.604,-8.567 -0.028,-0.756 -0.345,-1.54 -0.376,-2.302 -0.017,-0.387 0.105,-0.773 0.074,-1.133 -0.048,-0.509 -0.386,-0.979 -0.429,-1.517 -0.124,-1.541 -0.447,-2.266 -0.74,-3.463 -0.207,-0.854 -0.138,-1.71 -0.364,-2.476 -0.153,-0.519 -0.516,-0.939 -0.695,-1.447 -0.133,-0.373 -0.106,-0.772 -0.275,-1.155 -0.204,-0.465 -0.656,-0.922 -0.956,-1.463 -0.295,-0.53 -0.621,-1.007 -0.956,-1.463 -0.76,-1.032 -1.291,-2.215 -1.909,-3.014 -0.375,-0.486 -0.946,-0.771 -1.321,-1.225 -0.618,-0.747 -0.981,-1.589 -1.796,-2.041 -3.326,1.675 -6.548,3.469 -8.652,6.534 0.767,0.915 2.018,1.445 3.178,2.308 0.738,0.547 1.521,1.649 2.383,2.431 0.77,0.696 1.674,1.309 2.406,2.081 0.789,0.837 1.647,1.552 2.307,2.252 0.451,0.479 0.833,1.288 1.312,1.397 1.003,0.234 4.929,-1.417 5.091,-0.196 0.248,1.855 -3.415,1.171 -3.745,2.386 0.065,0.972 1.403,1.909 0.604,2.841 -1.227,-0.209 -1.039,-1.665 -1.87,-2.223 -0.895,0.48 -1.862,1.05 -2.565,1.761 -0.945,0.956 -2.036,2.063 -2.422,3.61 2.303,1.844 4.931,3.399 7.282,5.199 0.638,0.921 1.461,1.677 2.482,2.263 0.408,-0.374 0.255,-0.91 0.348,-1.378 z m -7.097,-13.507 c -0.036,-0.106 -0.08,-0.204 -0.157,-0.273 -0.878,-1.085 -2.323,-1.471 -3.528,-2.33 -1.284,-0.916 -3.087,-2.813 -4.483,-3.792 -0.219,-0.153 -0.636,-0.25 -0.85,-0.404 -0.845,-0.61 -1.912,-2.049 -2.587,-2.007 -0.376,0.023 -0.884,0.907 -1.229,1.409 -1.749,2.549 -2.97,5.834 -4.052,8.495 0.568,0.491 1.093,0.852 2.02,1.27 0.626,0.28 2.178,0.543 1.928,1.351 -0.117,0.38 -0.864,0.456 -1.081,0.456 -1.303,-0.001 -2.345,-1.214 -3.524,-1.016 -1.608,2.344 -1.576,5.662 -2.481,8.597 -0.131,0.424 -0.488,0.764 -0.603,1.188 -0.481,1.796 -0.383,3.738 -0.453,5.662 0.963,0.675 2.152,0.636 3.355,0.917 2.04,0.477 4.039,1.563 6.665,1.218 0.3,-1.125 0.134,-2.091 0.291,-3.133 0.1,-0.674 0.497,-1.266 0.652,-1.973 0.099,-0.449 -0.029,-0.981 0.096,-1.482 0.118,-0.479 0.478,-0.955 0.706,-1.443 0.214,-0.459 0.421,-0.986 0.625,-1.535 0.357,-0.97 1.297,-2.337 1.155,-2.99 -0.223,-1.04 -1.749,-1.148 -2.597,-1.832 -0.063,-0.79 -1.054,-1.127 -0.84,-1.894 1.907,0.029 3.031,1.444 5.061,1.641 1.73,-2.307 4.016,-3.981 5.911,-6.1 z m -6.154,-21.328 c -0.973,-0.566 -2.02,-0.772 -3.17,-1.08 -1.272,-0.343 -2.49,-0.92 -3.689,-1.202 -2.883,-0.681 -4.422,-0.092 -6.124,1.269 -1.681,1.343 -3.345,2.641 -4.403,4.444 -0.477,0.487 -1.123,0.78 -1.328,1.577 1.213,0.774 2.293,0.409 3.804,0.771 0.322,0.078 0.585,0.392 0.932,0.499 1.353,0.418 3.436,0.534 4.92,1.104 0.819,0.317 2.21,1.472 2.974,1.419 0.421,-0.028 1.216,-0.948 1.666,-1.381 0.646,-0.622 1.079,-1.346 1.508,-1.654 1.741,-1.249 3.872,-2.399 5.579,-3.669 0.004,-0.059 0.006,-0.116 0.011,-0.175 -0.71,-0.674 -1.684,-1.341 -2.68,-1.922 z m -9.924,13.984 c 0.792,-0.754 1.593,-1.496 2.013,-2.673 -3.173,-2.204 -8.073,-3.325 -12.984,-3.729 -2.185,2.788 -4.378,5.564 -5.601,9.447 2.158,0.918 4.479,1.083 6.63,1.742 0.932,0.283 1.71,0.95 2.637,1.22 1.604,0.467 2.719,0.892 4.117,1.317 1.126,-2.368 1.963,-5.068 3.188,-7.324 z m -4.281,9.356 c -3.746,-1.835 -8.781,-2.54 -13.338,-3.663 -0.811,1.572 -1.678,3.557 -2.372,5.54 -0.4,1.142 -0.432,2.324 -0.679,3.721 -0.2,1.137 -0.759,2.676 -0.411,3.652 0.114,0.319 1.108,1.038 1.747,1.426 1.85,1.125 3.065,1.652 4.994,2.687 1.031,0.555 2.239,1.187 3.061,1.425 0.396,0.115 0.827,0.077 1.04,0.154 0.869,0.313 2.093,1.207 3.265,0.999 0.662,-1.608 0.366,-3.291 0.582,-4.954 0.16,-1.229 0.726,-2.381 0.935,-3.618 0.158,-0.943 -0.042,-1.993 0.191,-2.965 0.113,-0.468 0.472,-0.837 0.613,-1.361 0.25,-0.921 0.287,-1.926 0.616,-2.763 -0.041,-0.13 -0.122,-0.222 -0.244,-0.28 z"
           id="path72" />
        <path
           style="fill:#ef7d00;fill-rule:evenodd;stroke:#ef7d00;stroke-width:0.1459"
           inkscape:connector-curvature="0"
           clip-rule="evenodd"
           d="m 32.463,285.399 c -0.893,5.005 -0.093,10.646 0.775,15.112 l -0.392,0.144 -0.335,0.248 c -0.449,-0.448 -0.403,-1.421 -0.637,-2.318 -0.223,-0.854 -0.354,-0.912 -0.4,-1.952 -0.11,-2.416 -1.507,-5.531 -1.285,-8.579 0.074,-1.013 -0.091,-2.245 0.04,-3.324 0.062,-0.509 0.433,-1.044 0.635,-1.711 0.217,-0.71 0.519,-2.11 1.351,-1.927 1.08,0.236 0.126,2.74 0.13,3.424 0.123,0.057 0.204,0.149 0.244,0.279 l -0.365,0.238 0.239,0.366 z"
           id="path74" />
        <g
           id="g76">
          <path
             style="fill:#ef7d00;fill-rule:evenodd;stroke:#ef7d00;stroke-width:0.1459"
             inkscape:connector-curvature="0"
             clip-rule="evenodd"
             d="m 32.847,300.655 c 0.381,0.94 0.646,1.939 0.949,2.903"
             id="path78" />
          <path
             style="fill:#ef7d00;fill-rule:evenodd;stroke:#ef7d00;stroke-width:0.1459"
             inkscape:connector-curvature="0"
             clip-rule="evenodd"
             d="m 32.224,285.033 c 0.283,0.075 0.61,0.046 0.855,0.229 0.671,1.521 1.634,2.738 2.803,3.879"
             id="path80" />
        </g>
      </g>
      <g
         id="g82">
        <path
           inkscape:connector-curvature="0"
           d="m 149.247,382.62 c 0,0.085 0.005,0.214 0.016,0.39 0.011,0.174 0.016,0.304 0.016,0.389 0,0.994 -0.09,1.918 -0.27,2.771 -0.18,0.853 -0.455,1.653 -0.825,2.405 -1.09,2.17 -2.573,3.846 -4.45,5.025 -1.877,1.181 -4,1.771 -6.37,1.771 -1.745,0 -3.358,-0.333 -4.839,-1 -1.481,-0.667 -2.813,-1.655 -3.998,-2.968 -0.984,-1.102 -1.735,-2.35 -2.253,-3.746 -0.519,-1.396 -0.777,-2.879 -0.777,-4.445 0,-1.607 0.312,-3.135 0.936,-4.578 0.624,-1.445 1.539,-2.76 2.745,-3.945 1.142,-1.131 2.414,-1.973 3.815,-2.523 1.401,-0.55 2.953,-0.825 4.656,-0.825 2.485,0 4.632,0.608 6.44,1.825 1.808,1.217 3.205,2.993 4.188,5.331 h -5.5 c -0.666,-0.833 -1.45,-1.458 -2.353,-1.875 -0.903,-0.417 -1.915,-0.625 -3.034,-0.625 -1.976,0 -3.649,0.714 -5.022,2.142 -1.373,1.428 -2.06,3.161 -2.06,5.202 0,2.072 0.695,3.819 2.086,5.241 1.391,1.423 3.101,2.134 5.131,2.134 1.406,0 2.683,-0.38 3.831,-1.142 1.148,-0.762 1.996,-1.787 2.546,-3.077 h -9.079 v -3.875 h 14.424 z"
           id="path84" />
        <path
           inkscape:connector-curvature="0"
           d="m 155.14,387.463 c 0.137,1.259 0.636,2.251 1.497,2.976 0.861,0.725 1.973,1.087 3.335,1.087 0.908,0 1.725,-0.191 2.448,-0.575 0.724,-0.383 1.296,-0.92 1.719,-1.612 h 4.375 c -0.74,1.909 -1.847,3.392 -3.321,4.448 -1.474,1.055 -3.178,1.583 -5.112,1.583 -1.3,0 -2.497,-0.23 -3.59,-0.69 -1.094,-0.459 -2.074,-1.139 -2.94,-2.039 -0.824,-0.855 -1.464,-1.848 -1.918,-2.975 -0.455,-1.127 -0.682,-2.282 -0.682,-3.467 0,-1.217 0.208,-2.361 0.626,-3.436 0.417,-1.073 1.033,-2.039 1.847,-2.896 0.888,-0.941 1.892,-1.666 3.013,-2.174 1.121,-0.508 2.278,-0.762 3.473,-0.762 1.512,0 2.923,0.344 4.234,1.031 1.311,0.688 2.426,1.655 3.346,2.902 0.56,0.751 0.975,1.591 1.245,2.522 0.27,0.93 0.404,1.998 0.404,3.203 0,0.096 -0.005,0.24 -0.016,0.436 -0.011,0.196 -0.016,0.342 -0.016,0.437 H 155.14 z m 9.625,-3.218 c -0.349,-1.161 -0.933,-2.045 -1.752,-2.651 -0.819,-0.607 -1.853,-0.911 -3.1,-0.911 -1.079,0 -2.046,0.327 -2.902,0.981 -0.856,0.654 -1.432,1.516 -1.728,2.581 h 9.482 z"
           id="path86" />
        <path
           inkscape:connector-curvature="0"
           d="m 170.615,386.103 c 0,-1.227 0.225,-2.393 0.675,-3.498 0.45,-1.105 1.104,-2.087 1.962,-2.943 0.878,-0.879 1.868,-1.553 2.97,-2.023 1.101,-0.471 2.245,-0.706 3.431,-0.706 1.26,0 2.422,0.209 3.486,0.627 1.064,0.418 2.041,1.044 2.93,1.88 0.91,0.878 1.614,1.891 2.112,3.039 0.498,1.147 0.747,2.324 0.747,3.53 0,1.333 -0.217,2.55 -0.651,3.649 -0.434,1.099 -1.085,2.094 -1.953,2.982 -0.869,0.9 -1.859,1.58 -2.97,2.039 -1.112,0.46 -2.319,0.69 -3.621,0.69 -1.313,0 -2.51,-0.233 -3.59,-0.698 -1.08,-0.465 -2.064,-1.164 -2.954,-2.094 -0.847,-0.91 -1.488,-1.912 -1.922,-3.008 -0.435,-1.093 -0.652,-2.249 -0.652,-3.466 z m 4.187,-0.031 c 0,1.618 0.445,2.9 1.335,3.848 0.891,0.945 2.099,1.419 3.625,1.419 1.505,0 2.706,-0.483 3.602,-1.451 0.896,-0.968 1.344,-2.271 1.344,-3.911 0,-1.469 -0.469,-2.678 -1.407,-3.624 -0.938,-0.946 -2.118,-1.42 -3.538,-1.42 -1.463,0 -2.656,0.479 -3.578,1.436 -0.922,0.956 -1.383,2.191 -1.383,3.703 z"
           id="path88" />
        <path
           inkscape:connector-curvature="0"
           d="m 199.417,394.901 h -7.857 v -23.094 h 7.73 c 2.094,0 3.77,0.212 5.028,0.635 1.258,0.423 2.4,1.132 3.426,2.125 1.09,1.058 1.914,2.337 2.475,3.839 0.561,1.502 0.841,3.188 0.841,5.059 0,2.094 -0.392,3.969 -1.174,5.623 -0.782,1.655 -1.919,3.017 -3.41,4.084 -0.847,0.625 -1.792,1.068 -2.839,1.333 -1.047,0.265 -2.454,0.396 -4.22,0.396 z m -0.285,-3.969 c 2.503,0 4.346,-0.612 5.528,-1.839 1.183,-1.226 1.774,-3.145 1.774,-5.755 0,-2.399 -0.647,-4.265 -1.94,-5.597 -1.295,-1.331 -3.103,-1.997 -5.426,-1.997 h -2.946 v 15.188 h 3.01 z"
           id="path90" />
        <path
           inkscape:connector-curvature="0"
           d="m 227.2,394.901 v -2.137 c -0.488,0.869 -1.174,1.511 -2.059,1.923 -0.885,0.413 -2.017,0.62 -3.395,0.62 -2.586,0 -4.746,-0.882 -6.479,-2.645 -1.733,-1.763 -2.6,-3.952 -2.6,-6.567 0,-1.229 0.217,-2.393 0.652,-3.494 0.434,-1.102 1.054,-2.07 1.859,-2.906 0.869,-0.921 1.834,-1.602 2.894,-2.041 1.06,-0.439 2.252,-0.659 3.577,-0.659 1.271,0 2.365,0.212 3.283,0.634 0.916,0.424 1.656,1.063 2.218,1.918 v -2.114 h 3.954 v 17.469 H 227.2 z m -10.375,-8.868 c 0,1.473 0.49,2.704 1.472,3.695 0.981,0.99 2.177,1.485 3.589,1.485 1.283,0 2.413,-0.497 3.389,-1.493 0.977,-0.996 1.465,-2.162 1.465,-3.497 0,-1.42 -0.491,-2.642 -1.473,-3.663 -0.981,-1.023 -2.129,-1.534 -3.445,-1.534 -1.379,0 -2.557,0.485 -3.532,1.454 -0.977,0.97 -1.465,2.154 -1.465,3.553 z"
           id="path92" />
        <path
           inkscape:connector-curvature="0"
           d="m 235.913,394.901 v -13.844 h -2.656 v -3.625 h 2.656 v -5.625 h 4.063 v 5.625 h 2.688 v 3.625 h -2.688 v 13.844 h -4.063 z"
           id="path94" />
        <path
           inkscape:connector-curvature="0"
           d="m 258.082,394.901 v -2.137 c -0.487,0.869 -1.175,1.511 -2.06,1.923 -0.885,0.413 -2.016,0.62 -3.394,0.62 -2.587,0 -4.746,-0.882 -6.479,-2.645 -1.732,-1.763 -2.599,-3.952 -2.599,-6.567 0,-1.229 0.218,-2.393 0.651,-3.494 0.436,-1.102 1.055,-2.07 1.86,-2.906 0.869,-0.921 1.833,-1.602 2.894,-2.041 1.06,-0.439 2.252,-0.659 3.577,-0.659 1.271,0 2.366,0.212 3.282,0.634 0.918,0.424 1.656,1.063 2.219,1.918 v -2.114 h 3.954 v 17.469 h -3.905 z m -10.375,-8.868 c 0,1.473 0.49,2.704 1.472,3.695 0.981,0.99 2.178,1.485 3.588,1.485 1.284,0 2.414,-0.497 3.391,-1.493 0.975,-0.996 1.463,-2.162 1.463,-3.497 0,-1.42 -0.49,-2.642 -1.472,-3.663 -0.981,-1.023 -2.13,-1.534 -3.444,-1.534 -1.38,0 -2.558,0.485 -3.533,1.454 -0.978,0.97 -1.465,2.154 -1.465,3.553 z"
           id="path96" />
      </g>
      <g
         id="g98">
        <path
           inkscape:connector-curvature="0"
           d="m 138.153,364.992 h -10.406 v -23.094 h 2.281 v 20.844 h 8.125 v 2.25 z"
           id="path100" />
        <path
           inkscape:connector-curvature="0"
           d="m 143.046,345.46 h -2.25 v -3.594 h 2.25 v 3.594 z m -2.25,19.532 v -17.469 h 2.25 v 17.469 h -2.25 z"
           id="path102" />
        <path
           inkscape:connector-curvature="0"
           d="m 146.653,347.523 h 2.188 v 2.003 c 0.688,-0.798 1.483,-1.389 2.388,-1.772 0.904,-0.383 1.938,-0.574 3.102,-0.574 1.279,0 2.419,0.238 3.418,0.715 0.999,0.477 1.79,1.16 2.372,2.05 0.402,0.625 0.69,1.358 0.865,2.2 0.174,0.843 0.262,2.085 0.262,3.727 v 9.121 h -2.219 v -9.771 c 0,-2.063 -0.394,-3.559 -1.181,-4.488 -0.787,-0.932 -2.046,-1.396 -3.778,-1.396 -1.014,0 -1.904,0.203 -2.67,0.611 -0.766,0.406 -1.371,0.99 -1.814,1.752 -0.275,0.477 -0.468,1.018 -0.579,1.626 -0.111,0.608 -0.166,1.669 -0.166,3.181 v 8.486 h -2.188 v -17.471 z"
           id="path104" />
        <path
           inkscape:connector-curvature="0"
           d="m 167.073,364.992 h -2.25 v -23.094 h 2.25 v 13.725 l 6.281,-8.1 h 2.563 l -6.313,8.1 7.688,9.369 h -2.82 l -7.399,-9.1 v 9.1 z"
           id="path106" />
        <path
           inkscape:connector-curvature="0"
           d="m 194.802,356.96 h -15.75 c 0.137,1.903 0.824,3.441 2.062,4.615 1.238,1.174 2.781,1.76 4.631,1.76 1.311,0 2.49,-0.342 3.537,-1.024 1.047,-0.682 1.855,-1.633 2.427,-2.851 h 2.531 c -0.803,1.941 -1.931,3.432 -3.384,4.472 -1.453,1.04 -3.136,1.56 -5.049,1.56 -2.536,0 -4.682,-0.904 -6.436,-2.715 -1.754,-1.811 -2.631,-3.986 -2.631,-6.527 0,-2.658 0.859,-4.854 2.577,-6.591 1.718,-1.737 3.915,-2.604 6.589,-2.604 2.622,0 4.76,0.902 6.415,2.705 1.654,1.805 2.482,4.15 2.482,7.039 v 0.161 z m -2.469,-1.937 c -0.423,-1.938 -1.201,-3.396 -2.333,-4.375 -1.132,-0.979 -2.608,-1.469 -4.427,-1.469 -1.692,0 -3.126,0.526 -4.3,1.579 -1.174,1.053 -1.894,2.474 -2.158,4.265 h 13.218 z"
           id="path108" />
        <path
           inkscape:connector-curvature="0"
           d="m 212.058,350.304 v -3.887 -4.52 h 2.25 v 23.094 h -2.25 v -2.64 c -0.783,0.978 -1.756,1.74 -2.919,2.288 -1.164,0.547 -2.396,0.82 -3.696,0.82 -2.517,0 -4.638,-0.889 -6.361,-2.668 -1.724,-1.779 -2.586,-3.96 -2.586,-6.544 0,-2.562 0.851,-4.72 2.554,-6.472 1.703,-1.752 3.833,-2.629 6.393,-2.629 1.375,0 2.625,0.269 3.752,0.805 1.126,0.539 2.08,1.322 2.863,2.353 z m 0.064,6.135 c 0,-1.986 -0.659,-3.684 -1.976,-5.089 -1.317,-1.405 -2.864,-2.108 -4.642,-2.108 -1.841,0 -3.417,0.668 -4.729,2.006 -1.312,1.336 -1.968,2.973 -1.968,4.906 0,2.04 0.658,3.752 1.976,5.137 1.317,1.385 2.912,2.076 4.784,2.076 1.724,0 3.248,-0.691 4.57,-2.076 1.323,-1.385 1.985,-3.002 1.985,-4.852 z"
           id="path110" />
      </g>
    </g>
  </g>
</svg>
