<?xml version="1.0" encoding="UTF-8" standalone="no"?>
<!-- Generator: Adobe Illustrator 12.0.1, SVG Export Plug-In . SVG Version: 6.00 Build 51448)  -->

<svg
   xmlns:dc="http://purl.org/dc/elements/1.1/"
   xmlns:cc="http://creativecommons.org/ns#"
   xmlns:rdf="http://www.w3.org/1999/02/22-rdf-syntax-ns#"
   xmlns:svg="http://www.w3.org/2000/svg"
   xmlns="http://www.w3.org/2000/svg"
   xmlns:sodipodi="http://sodipodi.sourceforge.net/DTD/sodipodi-0.dtd"
   xmlns:inkscape="http://www.inkscape.org/namespaces/inkscape"
   version="1.1"
   width="395.25073"
   height="168.76094"
   viewBox="0 0 395.25073 168.76094"
   overflow="visible"
   enable-background="new 0 0 395.259 423.164"
   xml:space="preserve"
   id="svg2"
   inkscape:version="0.48.1 r9760"
   sodipodi:docname="linkedgeodata-big.svg"
   style="overflow:visible"><metadata
   id="metadata116"><rdf:RDF><cc:Work
       rdf:about=""><dc:format>image/svg+xml</dc:format><dc:type
         rdf:resource="http://purl.org/dc/dcmitype/StillImage" /><dc:title></dc:title></cc:Work></rdf:RDF></metadata><defs
   id="defs114" /><sodipodi:namedview
   pagecolor="#ffffff"
   bordercolor="#666666"
   borderopacity="1"
   objecttolerance="10"
   gridtolerance="10"
   guidetolerance="10"
   inkscape:pageopacity="0"
   inkscape:pageshadow="2"
   inkscape:window-width="1920"
   inkscape:window-height="1052"
   id="namedview112"
   showgrid="false"
   inkscape:zoom="1.5407738"
   inkscape:cx="383.27059"
   inkscape:cy="-15.205876"
   inkscape:window-x="1366"
   inkscape:window-y="0"
   inkscape:window-maximized="1"
   inkscape:current-layer="svg2"
   fit-margin-top="0"
   fit-margin-left="0"
   fit-margin-right="0"
   fit-margin-bottom="0" />
<g
   id="Ebene_3"
   transform="translate(-0.0082671,0.00450655)">
	<g
   id="g5">
		<path
   d="m 122.595,145.117 h -10.406 v -23.094 h 2.281 v 20.844 h 8.125 v 2.25 z"
   id="path7"
   inkscape:connector-curvature="0" />
		<path
   d="m 127.488,125.585 h -2.25 v -3.594 h 2.25 v 3.594 z m -2.25,19.532 v -17.469 h 2.25 v 17.469 h -2.25 z"
   id="path9"
   inkscape:connector-curvature="0" />
		<path
   d="m 131.095,127.648 h 2.188 v 2.003 c 0.688,-0.798 1.483,-1.389 2.388,-1.771 0.905,-0.382 1.938,-0.575 3.102,-0.575 1.279,0 2.419,0.239 3.418,0.716 0.999,0.477 1.79,1.159 2.372,2.049 0.402,0.625 0.69,1.359 0.865,2.201 0.174,0.842 0.262,2.084 0.262,3.726 v 9.121 h -2.219 v -9.771 c 0,-2.062 -0.394,-3.558 -1.181,-4.489 -0.787,-0.93 -2.046,-1.396 -3.778,-1.396 -1.014,0 -1.904,0.204 -2.67,0.61 -0.766,0.408 -1.371,0.992 -1.814,1.754 -0.275,0.475 -0.468,1.018 -0.579,1.625 -0.111,0.608 -0.166,1.668 -0.166,3.181 v 8.486 h -2.188 v -17.47 z"
   id="path11"
   inkscape:connector-curvature="0" />
		<path
   d="m 151.515,145.117 h -2.25 v -23.094 h 2.25 v 13.724 l 6.281,-8.099 h 2.563 l -6.313,8.099 7.688,9.37 h -2.82 l -7.399,-9.1 v 9.1 z"
   id="path13"
   inkscape:connector-curvature="0" />
		<path
   d="m 179.244,137.085 h -15.75 c 0.137,1.903 0.824,3.441 2.062,4.614 1.237,1.174 2.781,1.761 4.631,1.761 1.311,0 2.49,-0.341 3.537,-1.024 1.047,-0.683 1.855,-1.633 2.427,-2.851 h 2.531 c -0.803,1.941 -1.931,3.433 -3.384,4.472 -1.453,1.04 -3.136,1.56 -5.049,1.56 -2.536,0 -4.682,-0.905 -6.436,-2.716 -1.754,-1.811 -2.631,-3.986 -2.631,-6.527 0,-2.656 0.859,-4.854 2.577,-6.59 1.718,-1.736 3.915,-2.604 6.589,-2.604 2.622,0 4.76,0.901 6.415,2.706 1.654,1.803 2.482,4.149 2.482,7.037 v 0.162 z m -2.469,-1.937 c -0.423,-1.938 -1.201,-3.396 -2.333,-4.375 -1.132,-0.979 -2.608,-1.469 -4.427,-1.469 -1.692,0 -3.126,0.526 -4.3,1.579 -1.174,1.053 -1.894,2.475 -2.158,4.265 h 13.218 z"
   id="path15"
   inkscape:connector-curvature="0" />
		<path
   d="m 196.5,130.428 v -3.885 -4.521 h 2.25 v 23.094 h -2.25 v -2.64 c -0.782,0.978 -1.756,1.74 -2.919,2.287 -1.164,0.547 -2.396,0.821 -3.696,0.821 -2.517,0 -4.638,-0.89 -6.361,-2.668 -1.724,-1.778 -2.586,-3.96 -2.586,-6.544 0,-2.563 0.851,-4.719 2.554,-6.472 1.703,-1.753 3.833,-2.629 6.393,-2.629 1.375,0 2.626,0.269 3.752,0.806 1.126,0.538 2.081,1.322 2.863,2.351 z m 0.063,6.136 c 0,-1.987 -0.658,-3.683 -1.976,-5.089 -1.317,-1.405 -2.864,-2.108 -4.642,-2.108 -1.841,0 -3.417,0.669 -4.729,2.005 -1.312,1.338 -1.968,2.973 -1.968,4.907 0,2.04 0.658,3.752 1.976,5.136 1.316,1.385 2.912,2.077 4.784,2.077 1.724,0 3.247,-0.692 4.569,-2.077 1.324,-1.384 1.986,-3.001 1.986,-4.851 z"
   id="path17"
   inkscape:connector-curvature="0" />
		<path
   d="m 225.158,132.835 c 0,0.085 0.005,0.214 0.016,0.39 0.011,0.174 0.017,0.304 0.017,0.389 0,0.994 -0.091,1.918 -0.271,2.771 -0.18,0.853 -0.454,1.653 -0.825,2.405 -1.09,2.17 -2.572,3.846 -4.449,5.025 -1.878,1.181 -4.001,1.771 -6.37,1.771 -1.745,0 -3.358,-0.333 -4.839,-1 -1.481,-0.667 -2.813,-1.655 -3.998,-2.968 -0.984,-1.102 -1.734,-2.35 -2.253,-3.746 -0.519,-1.396 -0.777,-2.879 -0.777,-4.445 0,-1.607 0.312,-3.135 0.937,-4.578 0.623,-1.445 1.538,-2.76 2.744,-3.945 1.143,-1.131 2.414,-1.973 3.815,-2.523 1.401,-0.55 2.953,-0.825 4.656,-0.825 2.485,0 4.632,0.608 6.44,1.825 1.808,1.217 3.205,2.993 4.188,5.331 h -5.5 c -0.665,-0.833 -1.45,-1.458 -2.353,-1.875 -0.904,-0.417 -1.915,-0.625 -3.034,-0.625 -1.976,0 -3.649,0.714 -5.022,2.142 -1.373,1.428 -2.06,3.161 -2.06,5.202 0,2.072 0.695,3.819 2.086,5.241 1.391,1.423 3.101,2.134 5.132,2.134 1.406,0 2.683,-0.38 3.83,-1.142 1.147,-0.762 1.996,-1.787 2.546,-3.077 h -9.079 v -3.875 h 14.423 z"
   id="path19"
   inkscape:connector-curvature="0" />
		<path
   d="m 231.052,137.679 c 0.137,1.259 0.637,2.251 1.497,2.976 0.86,0.725 1.973,1.087 3.335,1.087 0.908,0 1.725,-0.191 2.449,-0.575 0.723,-0.383 1.296,-0.92 1.719,-1.612 h 4.375 c -0.74,1.909 -1.847,3.392 -3.32,4.448 -1.475,1.055 -3.179,1.583 -5.112,1.583 -1.3,0 -2.497,-0.23 -3.591,-0.69 -1.094,-0.459 -2.073,-1.139 -2.939,-2.039 -0.824,-0.855 -1.464,-1.848 -1.918,-2.975 -0.455,-1.127 -0.682,-2.282 -0.682,-3.467 0,-1.217 0.209,-2.361 0.627,-3.436 0.417,-1.073 1.033,-2.039 1.847,-2.896 0.888,-0.941 1.892,-1.666 3.013,-2.174 1.121,-0.508 2.278,-0.762 3.473,-0.762 1.512,0 2.923,0.344 4.234,1.031 1.311,0.688 2.426,1.655 3.346,2.902 0.561,0.751 0.975,1.591 1.244,2.522 0.27,0.93 0.404,1.998 0.404,3.203 0,0.096 -0.005,0.24 -0.016,0.436 -0.011,0.196 -0.016,0.342 -0.016,0.437 h -13.969 z m 9.625,-3.219 c -0.35,-1.161 -0.934,-2.045 -1.752,-2.651 -0.82,-0.607 -1.854,-0.911 -3.1,-0.911 -1.079,0 -2.047,0.327 -2.902,0.981 -0.857,0.654 -1.433,1.516 -1.729,2.581 h 9.483 z"
   id="path21"
   inkscape:connector-curvature="0" />
		<path
   d="m 246.526,136.319 c 0,-1.227 0.225,-2.393 0.675,-3.498 0.45,-1.105 1.104,-2.087 1.962,-2.943 0.879,-0.879 1.868,-1.553 2.97,-2.023 1.101,-0.471 2.245,-0.706 3.431,-0.706 1.26,0 2.422,0.209 3.486,0.627 1.064,0.418 2.041,1.044 2.93,1.88 0.91,0.878 1.615,1.891 2.113,3.039 0.497,1.147 0.746,2.324 0.746,3.53 0,1.333 -0.217,2.55 -0.651,3.649 -0.434,1.099 -1.085,2.094 -1.953,2.982 -0.868,0.9 -1.858,1.58 -2.97,2.039 -1.112,0.46 -2.319,0.69 -3.621,0.69 -1.314,0 -2.51,-0.233 -3.59,-0.698 -1.08,-0.465 -2.064,-1.164 -2.955,-2.094 -0.847,-0.91 -1.487,-1.912 -1.922,-3.008 -0.434,-1.093 -0.651,-2.249 -0.651,-3.466 z m 4.188,-0.031 c 0,1.618 0.445,2.9 1.336,3.848 0.891,0.945 2.099,1.419 3.625,1.419 1.506,0 2.706,-0.483 3.602,-1.451 0.896,-0.968 1.344,-2.271 1.344,-3.911 0,-1.469 -0.469,-2.678 -1.407,-3.624 -0.938,-0.946 -2.118,-1.42 -3.538,-1.42 -1.463,0 -2.656,0.479 -3.578,1.436 -0.922,0.957 -1.384,2.191 -1.384,3.703 z"
   id="path23"
   inkscape:connector-curvature="0" />
		<path
   d="m 275.33,145.117 h -7.858 v -23.094 h 7.731 c 2.094,0 3.77,0.212 5.027,0.635 1.26,0.423 2.4,1.132 3.428,2.125 1.088,1.058 1.912,2.337 2.473,3.839 0.561,1.502 0.842,3.188 0.842,5.059 0,2.094 -0.393,3.969 -1.174,5.623 -0.783,1.655 -1.92,3.017 -3.41,4.084 -0.846,0.625 -1.793,1.068 -2.84,1.333 -1.047,0.265 -2.454,0.396 -4.219,0.396 z m -0.286,-3.969 c 2.502,0 4.346,-0.612 5.527,-1.839 1.184,-1.226 1.775,-3.145 1.775,-5.755 0,-2.399 -0.646,-4.265 -1.941,-5.597 -1.293,-1.331 -3.102,-1.997 -5.426,-1.997 h -2.945 v 15.188 h 3.01 z"
   id="path25"
   inkscape:connector-curvature="0" />
		<path
   d="m 303.111,145.117 v -2.137 c -0.486,0.869 -1.174,1.511 -2.059,1.923 -0.885,0.413 -2.016,0.62 -3.395,0.62 -2.586,0 -4.746,-0.882 -6.479,-2.645 -1.733,-1.763 -2.6,-3.952 -2.6,-6.567 0,-1.229 0.219,-2.393 0.652,-3.494 0.436,-1.102 1.055,-2.07 1.859,-2.906 0.869,-0.921 1.834,-1.602 2.895,-2.041 1.059,-0.439 2.252,-0.659 3.576,-0.659 1.271,0 2.367,0.212 3.283,0.634 0.918,0.424 1.656,1.063 2.219,1.918 v -2.114 h 3.953 v 17.469 h -3.904 z m -10.375,-8.868 c 0,1.473 0.49,2.704 1.473,3.695 0.98,0.99 2.178,1.485 3.588,1.485 1.283,0 2.414,-0.497 3.391,-1.493 0.975,-0.996 1.463,-2.162 1.463,-3.497 0,-1.42 -0.49,-2.642 -1.473,-3.663 -0.98,-1.023 -2.129,-1.534 -3.443,-1.534 -1.381,0 -2.559,0.485 -3.533,1.454 -0.978,0.97 -1.466,2.154 -1.466,3.553 z"
   id="path27"
   inkscape:connector-curvature="0" />
		<path
   d="m 311.824,145.117 v -13.844 h -2.656 v -3.625 h 2.656 v -5.625 h 4.063 v 5.625 h 2.688 v 3.625 h -2.688 v 13.844 h -4.063 z"
   id="path29"
   inkscape:connector-curvature="0" />
		<path
   d="m 333.994,145.117 v -2.137 c -0.488,0.869 -1.174,1.511 -2.059,1.923 -0.885,0.413 -2.018,0.62 -3.395,0.62 -2.586,0 -4.746,-0.882 -6.479,-2.645 -1.734,-1.763 -2.6,-3.952 -2.6,-6.567 0,-1.229 0.217,-2.393 0.652,-3.494 0.434,-1.102 1.053,-2.07 1.859,-2.906 0.869,-0.921 1.834,-1.602 2.893,-2.041 1.061,-0.439 2.252,-0.659 3.578,-0.659 1.271,0 2.365,0.212 3.283,0.634 0.916,0.424 1.656,1.063 2.217,1.918 v -2.114 h 3.955 v 17.469 h -3.904 z m -10.375,-8.868 c 0,1.473 0.49,2.704 1.471,3.695 0.982,0.99 2.178,1.485 3.59,1.485 1.283,0 2.412,-0.497 3.389,-1.493 0.977,-0.996 1.465,-2.162 1.465,-3.497 0,-1.42 -0.492,-2.642 -1.473,-3.663 -0.982,-1.023 -2.129,-1.534 -3.445,-1.534 -1.379,0 -2.557,0.485 -3.533,1.454 -0.976,0.97 -1.464,2.154 -1.464,3.553 z"
   id="path31"
   inkscape:connector-curvature="0" />
		<path
   d="m 345.361,145.117 h -2.281 v -4.219 h 2.281 v 4.219 z"
   id="path33"
   inkscape:connector-curvature="0" />
		<path
   d="m 349.66,136.415 c 0,-2.561 0.877,-4.75 2.633,-6.568 1.754,-1.82 3.832,-2.729 6.232,-2.729 2.525,0 4.68,0.894 6.463,2.682 1.781,1.788 2.672,3.919 2.672,6.394 0,2.603 -0.873,4.824 -2.617,6.664 -1.744,1.841 -3.859,2.761 -6.344,2.761 -2.527,0 -4.664,-0.901 -6.414,-2.705 -1.75,-1.804 -2.625,-3.972 -2.625,-6.499 z m 2.343,-0.04 c 0,2.009 0.639,3.691 1.92,5.05 1.279,1.357 2.871,2.036 4.775,2.036 1.873,0 3.443,-0.679 4.713,-2.036 1.27,-1.358 1.904,-3.053 1.904,-5.082 0,-2.061 -0.643,-3.754 -1.928,-5.08 -1.285,-1.326 -2.918,-1.989 -4.895,-1.989 -1.777,0 -3.305,0.682 -4.578,2.045 -1.274,1.362 -1.911,3.048 -1.911,5.056 z"
   id="path35"
   inkscape:connector-curvature="0" />
		<path
   d="m 372.541,145.117 h -2.281 v -17.469 h 2.121 v 2.028 c 0.549,-0.775 1.146,-1.344 1.795,-1.705 0.649,-0.361 1.406,-0.552 2.271,-0.573 l 0.016,2.438 c -1.402,0.127 -2.406,0.548 -3.014,1.262 -0.605,0.714 -0.908,1.875 -0.908,3.483 v 10.536 z"
   id="path37"
   inkscape:connector-curvature="0" />
		<path
   d="m 381.416,146.554 c 0.338,1.005 0.951,1.787 1.84,2.348 0.887,0.56 1.967,0.84 3.234,0.84 1.988,0 3.582,-0.659 4.781,-1.978 1.201,-1.319 1.801,-3.081 1.801,-5.286 v -0.46 c -0.846,1.158 -1.809,2.031 -2.887,2.621 -1.08,0.589 -2.27,0.884 -3.57,0.884 -2.623,0 -4.801,-0.876 -6.535,-2.628 -1.734,-1.753 -2.602,-3.938 -2.602,-6.553 0,-2.572 0.855,-4.732 2.57,-6.48 1.713,-1.746 3.834,-2.62 6.361,-2.62 1.469,0 2.742,0.266 3.814,0.797 1.074,0.531 2.023,1.36 2.848,2.486 v -2.877 h 2.188 v 14.577 c 0,3.044 -0.764,5.422 -2.291,7.135 -1.527,1.713 -3.633,2.569 -6.316,2.569 -1.977,0 -3.672,-0.487 -5.088,-1.462 -1.416,-0.976 -2.33,-2.279 -2.742,-3.913 h 2.594 z m -1.563,-10.306 c 0,2.04 0.648,3.747 1.943,5.121 1.297,1.374 2.859,2.061 4.689,2.061 1.725,0 3.248,-0.689 4.57,-2.069 1.322,-1.379 1.984,-2.998 1.984,-4.858 0,-1.987 -0.65,-3.683 -1.953,-5.089 -1.301,-1.405 -2.834,-2.108 -4.602,-2.108 -1.82,0 -3.381,0.669 -4.682,2.005 -1.299,1.336 -1.949,2.981 -1.949,4.937 z"
   id="path39"
   inkscape:connector-curvature="0" />
	</g>
	<g
   id="g41">
		<path
   clip-rule="evenodd"
   d="m 86.339,58.372 c 0.357,2.171 -0.95,4.02 -2.042,5.252 -1.849,2.086 -4.361,3.743 -5.69,6.274 1.734,0.708 3.339,1.164 4.96,2.188 0.923,0.583 1.881,1.524 2.918,2.188 2.595,1.661 5.097,3.06 6.419,5.836 1.546,0.79 2.855,2.636 3.939,4.377 2.112,3.393 3.273,6.222 3.939,11.234 0.2,1.506 0.794,3.857 0.146,5.836 -1.409,-0.622 -1.162,-2.275 -1.459,-3.355 -0.242,-0.881 -0.734,-1.715 -1.021,-2.626 -1.146,-3.634 -1.845,-6.745 -4.085,-9.337 -1.404,-1.625 -2.77,-3.622 -4.377,-5.252 -0.68,-0.69 -1.661,-1.325 -2.48,-2.189 -0.76,-0.802 -1.64,-1.736 -2.334,-2.188 -0.707,-0.46 -1.646,-0.586 -2.334,-1.021 -1.976,-1.249 -3.666,-3.036 -5.982,-3.939 -2.505,1.04 -3.147,3.752 -4.814,5.69 -0.4,0.465 -1.186,0.687 -1.605,1.167 -0.518,0.592 -0.577,1.457 -1.021,2.188 -0.617,1.019 -1.751,1.877 -2.334,2.918 -0.239,0.427 -0.22,0.963 -0.438,1.313 -0.646,1.036 -3.194,2.837 -2.918,4.231 0.209,1.059 4.005,2.31 4.96,2.918 1.663,1.059 2.927,1.328 5.398,2.188 2.559,0.892 5.504,2.214 8.754,1.605 0.744,-4.354 -0.625,-8.952 -0.438,-11.964 2.415,-0.702 2.494,2.167 3.502,3.356 0.783,3.203 0.041,8.591 2.772,9.629 0.192,1.263 -1.254,0.886 -1.459,1.751 -0.199,5.88 -0.529,11.629 -1.897,16.341 1.481,1.81 4.577,-1.71 6.128,0.146 -1.042,2.023 -4.063,2.064 -6.565,2.627 -2.516,5.141 -3.843,11.073 -6.128,16.195 -1.31,2.936 -4.668,5.348 -4.523,9.045 2.859,0.158 7.615,0.051 11.088,0.146 0.882,0.024 1.984,-0.409 2.48,0.438 -0.746,1.869 -4.351,2.686 -7.003,2.918 -3.324,0.291 -7.732,-1.1 -10.359,0.292 -1.725,0.913 -1.206,3.636 -3.793,2.918 -0.103,-1.366 1.096,-1.433 1.021,-2.772 -1.777,-0.621 -3.577,0.316 -5.544,0.146 -0.742,-0.064 -1.457,-0.496 -2.188,-0.584 -0.876,-0.104 -1.775,0.068 -2.626,0 -1.348,-0.107 -2.51,-0.676 -3.794,-0.875 -0.858,-0.133 -1.97,0.183 -2.918,0 -0.531,-0.103 -1.645,-1.163 -2.334,-1.021 -1.218,0.25 -1.033,2.208 -1.021,3.647 0.009,1.103 -0.396,2.284 -0.438,3.21 -0.252,5.522 0.964,11.713 0.875,17.07 -0.438,0.194 -1.116,0.148 -1.75,0.146 -0.729,-3.818 -2.383,-8.092 -2.772,-12.693 -0.15,-1.775 0.142,-3.619 0,-5.398 -0.081,-1.007 -0.532,-1.935 -0.584,-2.918 -0.091,-1.745 0.885,-3.478 0.146,-5.107 -1.476,-0.695 -2.982,-0.568 -4.523,-1.167 -0.78,-0.303 -1.542,-0.868 -2.334,-1.167 -0.967,-0.364 -2.004,-0.402 -2.772,-0.729 -1.995,-0.852 -3.269,-3.133 -5.69,-3.21 -0.589,1.016 -0.145,3.064 -1.167,3.647 -1.053,0.027 -1.309,-1.396 -1.604,-2.188 -0.514,-1.377 -1.303,-2.467 -1.459,-4.377 -3.364,-3.153 -7.711,-5.323 -11.235,-8.316 -0.333,2.087 1.152,3.668 1.751,5.106 0.797,1.914 1.211,3.796 2.042,5.544 1.482,3.119 4.05,5.527 6.274,8.171 1.396,1.659 3.587,3.161 3.501,5.836 -1.65,0.188 -2.38,-1.44 -3.501,-2.335 -1.573,-1.253 -3.443,-2.182 -4.815,-3.501 -0.384,-0.37 -0.612,-1.021 -1.021,-1.459 -0.612,-0.654 -1.583,-0.995 -2.042,-1.604 -0.618,-0.819 -0.859,-2.141 -1.313,-3.356 -0.513,-1.372 -1.563,-2.532 -2.042,-3.647 -0.236,-0.549 -0.228,-1.227 -0.438,-1.75 -1.043,-2.604 -2.493,-4.67 -3.355,-7.15 -0.871,-2.503 -1.915,-5.226 -2.188,-8.316 -0.049,-0.551 0.132,-1.191 0,-1.75 -0.164,-0.691 -0.936,-1.459 -1.459,-2.334 -0.521,-0.871 -0.799,-1.806 -1.167,-2.627 -0.371,-0.826 -1.114,-1.529 -1.459,-2.48 -0.793,-2.186 -0.751,-4.702 -0.292,-7.44 2.7,0.655 2.496,4.215 4.377,5.69 1.034,-0.588 0.511,-1.924 0.583,-2.626 0.096,-0.931 0.388,-2.171 0.729,-3.209 1.228,-3.738 3.086,-7.559 4.96,-10.797 0.748,-1.291 1.728,-2.297 1.751,-3.501 0.046,-2.343 -2.787,-3.792 -1.459,-6.565 2.19,-0.589 2.005,2.653 3.647,2.772 1.161,0.084 1.545,-1.385 2.188,-2.042 0.958,-0.979 2.315,-1.375 2.626,-2.626 2.726,-1.783 4.783,-4.041 7.441,-5.982 2.44,-1.782 4.792,-3.025 8.17,-4.377 0.749,-0.3 1.438,-0.888 2.188,-1.167 1.018,-0.379 2.429,-0.506 3.647,-0.876 1.169,-0.354 2.228,-1.016 3.21,-1.167 2.322,-0.357 4.803,-0.343 6.857,-0.583 0.968,-0.114 2.1,-0.081 3.064,0 4.846,0.404 10.2,1.348 13.715,2.918 1.65,0.737 3.926,2.383 4.814,2.334 0.959,-0.053 1.506,-1.496 2.334,-2.334 0.733,-0.742 1.841,-1.549 2.772,-2.48 1.842,-1.843 4.009,-3.692 6.42,-4.815 0.264,-0.13 1.284,-0.603 1.897,-0.153 z M 68.831,69.314 c -4.353,-0.58 -9.056,-2.309 -14.444,-1.75 -1.257,0.13 -2.529,0.74 -3.794,0.875 -0.645,0.068 -1.303,-0.094 -1.896,0 -0.842,0.133 -1.59,0.746 -2.48,0.875 -2.554,0.372 -3.726,0.989 -5.69,1.605 -1.399,0.438 -2.833,0.415 -4.085,0.875 -0.845,0.311 -1.508,0.958 -2.334,1.313 -0.61,0.262 -1.277,0.262 -1.897,0.583 -0.753,0.392 -1.465,1.192 -2.334,1.751 -0.851,0.547 -1.61,1.142 -2.334,1.751 -1.638,1.375 -3.55,2.386 -4.815,3.501 -0.769,0.678 -1.181,1.661 -1.897,2.334 -1.18,1.11 -2.544,1.806 -3.209,3.21 3.148,5.363 6.484,10.538 11.818,13.715 1.441,-1.377 2.191,-3.518 3.502,-5.544 0.833,-1.288 2.585,-2.71 3.793,-4.231 1.077,-1.356 2,-2.929 3.21,-4.231 1.306,-1.405 2.406,-2.913 3.502,-4.085 0.751,-0.805 2.054,-1.527 2.188,-2.334 0.281,-1.697 -2.891,-8.06 -0.875,-8.462 3.064,-0.612 2.319,5.565 4.377,5.982 1.611,-0.211 3.03,-2.542 4.669,-1.313 -0.217,2.068 -2.661,1.91 -3.501,3.355 0.895,1.438 1.95,2.991 3.209,4.085 1.694,1.472 3.654,3.17 6.274,3.647 2.822,-4.035 5.133,-8.581 7.878,-12.693 1.465,-1.161 2.637,-2.615 3.501,-4.377 -0.669,-0.646 -1.545,-0.331 -2.336,-0.437 z m -21.74,13.278 c -0.172,0.07 -0.331,0.155 -0.438,0.292 -1.713,1.579 -2.2,4.027 -3.501,6.128 -1.388,2.239 -4.354,5.447 -5.836,7.878 -0.232,0.381 -0.349,1.085 -0.584,1.459 -0.924,1.473 -3.206,3.405 -3.064,4.523 0.08,0.627 1.608,1.377 2.48,1.896 4.434,2.642 10.038,4.32 14.59,5.836 0.757,-0.999 1.301,-1.911 1.896,-3.501 0.401,-1.071 0.67,-3.685 2.043,-3.356 0.645,0.155 0.852,1.391 0.875,1.751 0.14,2.172 -1.77,4.037 -1.313,5.982 4.08,2.427 9.604,2.016 14.59,3.209 0.718,0.172 1.324,0.732 2.042,0.876 3.046,0.608 6.272,0.235 9.484,0.146 1.021,-1.678 0.829,-3.654 1.167,-5.689 0.574,-3.451 2.168,-6.896 1.313,-11.235 -1.91,-0.378 -3.5,0.002 -5.252,-0.146 -1.135,-0.096 -2.162,-0.692 -3.356,-0.875 -0.758,-0.116 -1.632,0.154 -2.48,0 -0.811,-0.146 -1.643,-0.694 -2.48,-1.021 -0.787,-0.308 -1.688,-0.596 -2.626,-0.875 -1.654,-0.493 -4.031,-1.91 -5.107,-1.605 -1.708,0.484 -1.723,3.039 -2.772,4.523 -1.307,0.192 -1.763,1.878 -3.064,1.605 -0.155,-3.182 2.081,-5.206 2.188,-8.608 -4.024,-2.639 -7.059,-6.266 -10.795,-9.193 z m -34.87,12.547 c -0.84,1.68 -1.069,3.448 -1.459,5.398 -0.432,2.156 -1.263,4.248 -1.605,6.274 -0.823,4.876 0.323,7.378 2.772,10.067 2.418,2.654 4.76,5.288 7.878,6.857 0.864,0.74 1.422,1.788 2.772,2.042 1.157,-2.104 0.433,-3.863 0.875,-6.42 0.095,-0.546 0.588,-1.017 0.729,-1.604 0.552,-2.3 0.519,-5.782 1.313,-8.316 0.439,-1.4 2.212,-3.84 2.043,-5.106 -0.093,-0.696 -1.71,-1.922 -2.48,-2.626 -1.105,-1.011 -2.359,-1.653 -2.918,-2.334 -2.269,-2.766 -4.413,-6.193 -6.712,-8.9 -0.097,0 -0.194,0 -0.292,0 -1.047,1.253 -2.055,2.946 -2.916,4.668 z m 24.366,15.028 c -1.341,-1.237 -2.663,-2.493 -4.669,-3.064 -3.33,5.523 -4.671,13.808 -4.815,22.031 4.879,3.341 9.743,6.695 16.341,8.316 1.297,-3.696 1.323,-7.581 2.188,-11.234 0.375,-1.581 1.401,-2.95 1.751,-4.522 0.605,-2.723 1.193,-4.626 1.75,-7.004 -4.068,-1.622 -8.654,-2.725 -12.546,-4.523 z m 16.049,6.128 c -2.656,6.438 -3.287,14.902 -4.669,22.614 2.706,1.179 6.106,2.411 9.483,3.356 1.945,0.544 3.92,0.468 6.274,0.729 1.913,0.213 4.54,0.978 6.128,0.293 0.52,-0.225 1.611,-1.959 2.189,-3.064 1.673,-3.203 2.421,-5.285 3.939,-8.608 0.812,-1.778 1.733,-3.858 2.042,-5.253 0.149,-0.672 0.041,-1.386 0.146,-1.75 0.427,-1.479 1.786,-3.614 1.313,-5.545 -2.75,-0.93 -5.521,-0.256 -8.316,-0.438 -2.066,-0.134 -4.046,-0.953 -6.128,-1.167 -1.589,-0.163 -3.317,0.285 -4.96,0 -0.793,-0.138 -1.445,-0.695 -2.334,-0.876 -1.56,-0.315 -3.239,-0.271 -4.669,-0.729 -0.211,0.081 -0.356,0.227 -0.438,0.438 z"
   id="path43"
   inkscape:connector-curvature="0"
   style="fill:#bd148c;fill-rule:evenodd;stroke:#bd148c;stroke-width:0.1489" />
	</g>
	<g
   id="g45">
		<path
   clip-rule="evenodd"
   d="m 89.283,55.67 c 1.739,-1.269 3.896,-2.081 5.923,-2.666 1.024,-0.295 2.029,-0.765 2.842,-0.995 0.918,-0.259 2.154,-0.082 2.567,-0.74 0.382,-0.61 0.106,-2.867 0.229,-4.325 0.262,-3.104 1.688,-7.268 3.297,-10.859 0.32,-0.715 0.74,-1.53 1.199,-2.171 0.974,-1.362 1.934,-3.125 3.096,-4.631 0.491,-0.637 1.374,-1.129 2.082,-1.818 0.739,-0.718 1.381,-1.669 2.048,-2.242 0.491,-0.422 1.178,-0.681 1.683,-1.094 2.279,-1.865 4.08,-3.045 6.297,-4.077 2.415,-1.124 4.82,-1.699 7.149,-2.933 1.009,0.269 1.82,-0.538 2.889,-0.834 0.718,-0.199 1.909,0.104 2.304,-0.751 0.558,-1.21 -1.813,-2.347 -0.538,-3.669 2.485,0.145 2.403,2.718 4.082,3.602 0.863,0.455 1.959,0.154 3.166,0.129 3.027,-0.062 6.462,0.117 9.591,0.709 0.869,0.164 1.863,0.442 2.56,0.738 0.525,0.224 1.268,1.117 2.089,0.614 -0.31,-1.91 -2.911,-3.158 -2.319,-5.328 2.12,0.746 3.92,1.7 5.158,3.118 0.539,0.617 0.746,1.418 1.187,2.004 0.438,0.583 0.991,1.146 1.403,1.854 0.416,0.713 0.658,1.561 1.084,1.947 0.345,0.312 0.869,0.435 1.241,0.685 2.083,1.403 3.603,3.208 5.036,4.804 1.42,1.581 2.317,3.417 3.754,5.174 0.289,0.354 0.773,0.613 1.068,0.995 0.604,0.776 1.016,1.974 1.787,2.874 0.684,0.798 1.525,1.485 1.863,2.243 0.252,0.564 0.113,1.386 0.338,2.075 0.15,0.461 0.523,0.878 0.635,1.295 0.398,1.488 0.324,3.177 0.598,4.781 0.195,1.145 1.063,2.299 0.285,3.395 -1.93,-0.985 -2.137,-3.125 -2.766,-4.764 -1.004,-2.609 -1.706,-5.372 -3.336,-7.642 -0.914,-1.272 -2.086,-2.302 -3.129,-3.616 -0.785,-0.987 -1.324,-2.658 -2.934,-3.238 0.742,3.668 0.579,7.597 1.498,11.214 1.291,0.859 1.756,1.844 2.53,2.746 0.446,0.52 1.354,1.258 0.923,1.993 -0.813,0.496 -2.091,-0.62 -3.041,-0.6 -0.893,1.746 0.225,3.541 0.049,5.288 -0.068,0.672 -0.447,1.422 -0.568,2.25 -0.098,0.679 0.005,1.439 -0.086,2.111 -0.179,1.326 -0.857,2.343 -0.941,3.662 0.865,1.161 2.475,1.147 3.676,1.895 0.676,0.421 1.157,1.104 1.838,1.555 1.207,0.797 2.627,1.312 3.826,2.112 3.109,2.076 5.49,4.919 7.91,6.93 -0.246,0.451 -0.479,0.949 -0.789,1.184 -3.83,-2.033 -7.742,-5.316 -11.754,-7.298 -0.672,-0.332 -1.667,-0.507 -2.445,-0.945 -1.016,-0.571 -2.33,-1.468 -2.984,-0.703 -0.369,0.434 -0.053,1.637 -0.189,2.054 -0.24,0.743 -0.898,1.407 -1.141,2.067 -0.361,0.988 -0.412,2.033 -0.863,3.031 -0.285,0.629 -0.76,1.199 -1.027,1.861 -0.225,0.553 -0.198,1.229 -0.443,1.779 -0.648,1.46 -2.018,2.369 -2.271,3.871 0.92,0.577 1.436,-0.246 2.363,0.361 -0.504,2.114 -2.229,0.681 -3.551,1.546 -2.014,1.317 -2.753,4.985 -4.26,7.227 -1.202,1.789 -3.191,4.023 -4.807,3.821 -0.406,-0.683 0.332,-1.294 0.66,-1.929 1.292,-2.5 3.227,-5.827 4.235,-7.915 -2.564,-1.55 -5.586,-0.113 -8.18,-0.333 -4.522,-0.384 -9.245,-1.765 -13.873,-1.993 -1.377,1.553 -2.588,3.678 -4.429,3.625 -0.708,-1.825 2.997,-2.642 2.294,-4.399 -3.874,-0.874 -8.076,-2.889 -12.321,-5.048 -0.693,-0.192 -0.992,0.979 -1.812,0.349 0.333,-2.341 -3.775,-3.923 -5.738,-5.731 -0.448,-1.179 -2.45,-2.357 -1.008,-3.794 2.207,1.046 4.93,3.814 8.306,4.99 1.703,-2.065 1.918,-4.669 2.287,-6.831 0.357,-2.088 0.661,-3.088 0.561,-4.682 -0.057,-0.915 0.542,-4.093 -0.127,-4.656 -0.88,-0.741 -3.153,0.361 -4.139,0.413 -0.334,0.018 -0.706,-0.206 -1.102,-0.204 -0.965,0.006 -2.017,0.474 -2.981,0.513 -0.692,0.028 -1.328,-0.267 -1.95,-0.132 -0.505,0.109 -0.97,0.579 -1.455,0.681 -2.025,0.424 -4.199,-0.182 -5.915,1.186 -0.267,1.994 0.339,3.891 0.451,5.779 0.039,0.658 -0.239,1.374 -0.189,2.054 0.049,0.669 0.367,1.658 0.638,2.51 0.292,0.918 0.357,1.862 0.58,2.614 0.527,1.776 1.407,3.525 2.01,5.156 0.961,2.602 2.892,4.314 5.019,6.547 0.533,0.56 0.932,1.235 1.461,1.751 0.65,0.633 1.918,1.105 1.808,2.347 -1.656,-0.315 -3.089,-1.655 -4.078,-2.386 -3.292,-2.433 -4.842,-4.362 -6.42,-7.186 -0.81,-1.449 -1.605,-3.099 -1.561,-4.503 -1.45,-2.023 -1.462,-4.344 -1.624,-6.832 -0.065,-0.995 -0.357,-2.042 -0.409,-2.924 -0.091,-1.55 0.213,-2.865 0.39,-4.371 -2.313,-0.048 -4.47,1.083 -6.671,1.578 -1.301,0.292 -3.122,0.495 -4.521,-0.607 -0.083,-0.616 0.652,-1.153 0.842,-1.292 z m 13.155,-5.014 c 1.586,0.077 3.075,-0.185 4.471,-0.769 3.988,-0.337 8.113,-0.196 12.077,-0.617 0.687,-2.044 0.25,-4.096 -0.13,-5.873 -0.283,-1.321 -0.97,-2.675 -1.639,-3.872 -1.354,0.03 -2.197,1.824 -3.748,1.168 -0.229,-1.642 1.977,-1.736 2.757,-2.794 0.51,-1.622 -4.159,-3.51 -2.526,-5.442 1.074,-1.271 4.341,3.466 5.654,3.931 0.625,0.221 1.646,-0.42 2.51,-0.638 1.26,-0.317 2.758,-0.507 4.265,-0.883 1.396,-0.348 2.871,-0.387 4.254,-0.619 1.55,-0.26 3.243,-0.946 4.481,-1.033 1.949,-0.136 3.76,0.17 5.299,-0.313 -0.164,-5.022 -2.526,-9.411 -5.096,-13.739 -1.255,-0.077 -2.282,0.616 -3.53,1.019 -0.756,0.244 -1.614,0.151 -2.396,0.431 -1.285,0.46 -2.749,1.42 -4.364,2.042 -0.715,0.275 -1.434,0.58 -2.154,0.97 -0.736,0.397 -1.582,0.588 -2.154,0.969 -0.471,0.313 -0.731,0.786 -1.156,1.116 -0.575,0.447 -1.292,0.663 -1.843,1.141 -0.817,0.708 -1.36,1.732 -2.219,2.552 -1.205,1.151 -2.101,1.74 -3.363,3.404 -0.439,0.58 -1.167,0.87 -1.59,1.415 -0.299,0.384 -0.441,0.914 -0.742,1.344 -0.591,0.844 -1.521,1.506 -2.104,2.346 -2.504,3.6 -3.119,7.609 -4.41,10.92 -0.236,0.601 -0.802,1.099 -0.604,1.824 z m 20.804,-0.789 c 2.453,1.254 4.762,0.462 6.956,1.817 -0.315,1.029 -1.689,0.692 -2.335,1.543 -1.462,0.163 -3.278,-0.825 -4.29,0.195 -0.637,0.643 -0.563,2.881 -0.86,4.247 -0.168,0.774 -0.317,1.525 -0.407,2.203 -0.096,0.722 -0.034,1.526 -0.247,2.157 -0.224,0.661 -0.756,1.175 -0.97,1.757 -0.338,0.917 -0.316,1.879 -0.692,2.72 -0.581,1.3 -1.473,2.278 -1.952,3.779 2.74,2.303 5.805,2.521 8.475,3.464 1.575,0.556 2.9,1.466 4.489,1.399 1.319,-2.241 2.846,-4.381 3.606,-6.777 0.18,-0.565 0.02,-1.214 0.179,-1.79 1.105,-4 3.558,-7.754 3.434,-11.594 -1.2,-1.084 -3.269,-0.461 -4.753,-1.41 -0.246,-0.157 -1.041,-0.788 -0.897,-1.305 0.304,-1.102 2.26,-0.27 3.177,-0.135 1.36,0.2 2.218,0.171 3.223,0.026 0.707,-3.819 1.709,-8.446 1.572,-12.622 -0.027,-0.821 0.039,-2.197 -0.374,-2.5 -0.737,-0.538 -2.999,0.323 -4.403,0.402 -0.357,0.02 -0.901,-0.173 -1.262,-0.157 -2.303,0.099 -5.737,0.946 -7.866,1.054 -1.998,0.101 -3.923,-0.513 -5.712,0.084 -0.138,0.022 -0.26,0.102 -0.378,0.196 0.61,3.793 1.994,7.362 2.287,11.247 z m 15.792,-30.805 c -0.038,0.069 -0.076,0.138 -0.114,0.207 1.019,2.687 2.608,5.548 3.681,8.237 0.264,0.662 0.229,1.802 0.512,2.98 0.198,0.821 0.434,2.446 0.891,2.785 0.832,0.616 3.253,0.314 4.417,0.55 2.107,0.429 4.561,1.814 6.407,2.323 0.472,0.13 0.998,-0.036 1.423,0.111 1.984,0.686 2.947,1.888 4.891,1.891 0.348,-1.056 -0.176,-1.861 -0.363,-2.763 0.109,-2.823 -0.842,-5.513 -1.775,-8.266 -0.949,-2.787 -2.273,-4.578 -6.051,-5.902 -1.568,-0.55 -3.376,-0.779 -5.073,-1.316 -1.535,-0.487 -2.877,-1.016 -4.396,-1.078 -1.557,-0.064 -3.151,-0.013 -4.45,0.241 z m 3.863,33.563 c 1.903,0.535 3.481,0.863 5.647,1.499 1.251,0.368 2.623,0.176 3.89,0.529 2.927,0.816 5.689,2.317 8.816,2.844 1.432,-5.31 0.957,-10.068 0.5,-14.833 -5.883,-3.114 -12.279,-5.405 -17.495,-5.207 -0.38,1.646 -0.007,3.073 0.345,4.507 -0.246,3.461 -1.259,7.143 -1.703,10.661 z m -0.713,3.247 c -0.234,1.193 -0.923,2.365 -1.31,3.594 -0.22,0.701 -0.08,1.381 -0.293,1.997 -0.44,1.275 -1.434,2.325 -1.94,3.515 -0.664,1.559 -0.857,3.282 -1.57,4.799 -0.965,2.051 -2.526,3.751 -2.943,6.064 1.183,1.089 3.227,0.962 4.442,1.239 0.299,0.067 0.763,0.424 1.298,0.581 1.108,0.326 2.942,0.487 4.521,0.607 2.948,0.225 4.717,0.509 7.64,0.576 1.01,0.022 2.666,-0.072 3.027,-0.353 1.107,-0.857 1.593,-3.018 2.191,-4.456 0.734,-1.771 1.561,-3.14 1.936,-4.731 0.652,-2.763 1.109,-5.655 1.333,-8.033 -6.005,-2.037 -12.25,-4.901 -17.851,-5.538 -0.181,-0.024 -0.341,0.022 -0.481,0.139 z"
   id="path47"
   inkscape:connector-curvature="0"
   style="fill:#84ba08;fill-rule:evenodd;stroke:#84ba08;stroke-width:0.1181" />
	</g>
	<g
   id="g49">
		<path
   clip-rule="evenodd"
   d="m 86.657,56.849 c -1.314,-0.096 -2.208,-1.116 -2.773,-1.924 -0.956,-1.369 -1.569,-3.064 -2.857,-4.192 -0.655,0.911 -1.146,1.782 -1.969,2.583 -0.469,0.456 -1.151,0.882 -1.683,1.393 -1.331,1.279 -2.496,2.541 -4.297,2.922 -0.677,0.79 -1.935,1.294 -3.101,1.682 -2.271,0.755 -4.082,1.035 -7.095,0.722 -0.905,-0.094 -2.357,-0.077 -3.419,-0.731 0.56,-0.733 1.487,-0.358 2.158,-0.38 0.547,-0.018 1.102,-0.188 1.673,-0.227 2.277,-0.159 4.187,-0.13 6.01,-1.073 1.144,-0.59 2.497,-1.106 3.672,-1.814 0.497,-0.3 1.004,-0.782 1.622,-1.138 0.573,-0.331 1.24,-0.712 1.602,-1.053 0.366,-0.347 0.571,-0.877 0.921,-1.217 1.004,-0.976 2.281,-1.71 3.132,-2.933 -0.255,-1.604 -1.745,-2.358 -2.64,-3.601 -0.214,-0.298 -0.234,-0.786 -0.456,-1.098 -0.272,-0.384 -0.767,-0.54 -1.131,-0.901 -0.507,-0.502 -0.848,-1.283 -1.373,-1.768 -0.216,-0.199 -0.53,-0.263 -0.704,-0.439 -0.513,-0.521 -1.205,-2.257 -2.056,-2.292 -0.646,-0.026 -1.906,2.009 -2.394,2.481 -0.85,0.82 -1.183,1.519 -2.03,2.838 -0.877,1.365 -2.06,2.896 -2.16,4.874 2.432,1.043 5.301,0.889 7.029,1.419 0.071,1.505 -1.611,1.149 -2.444,1.57 -1.976,0.008 -5.01,-1.178 -5.996,0.267 -0.762,-0.065 -0.341,-0.854 -0.815,-1.095 -3.397,-0.939 -6.699,-1.936 -9.252,-3.392 -1.261,0.609 0.355,2.904 -0.942,3.548 -1.032,-0.89 -0.634,-2.656 -0.611,-4.191 -2.642,-2.185 -5.912,-3.788 -8.575,-5.835 -1.527,-1.174 -2.461,-3.468 -4.636,-3.9 -0.492,1.643 -1.095,4.428 -1.637,6.438 -0.138,0.51 -0.039,1.213 -0.602,1.384 -0.984,-0.696 -0.955,-2.91 -0.719,-4.487 0.296,-1.977 1.723,-4.35 1.28,-6.074 -0.291,-1.132 -1.949,-1.211 -1.168,-2.618 0.81,0.132 0.681,0.839 1.472,0.983 0.61,-0.948 0.316,-2.128 0.69,-3.25 0.142,-0.423 0.493,-0.779 0.646,-1.193 0.184,-0.496 0.209,-1.044 0.367,-1.53 0.252,-0.77 0.746,-1.367 1.041,-2.086 0.198,-0.482 0.169,-1.173 0.409,-1.7 0.134,-0.295 0.908,-0.795 0.921,-1.217 0.024,-0.744 -1.142,-0.911 -1.981,-1.105 -0.644,-0.149 -1.275,-0.55 -1.808,-0.704 -3.181,-0.919 -6.957,-1.078 -10.065,-1.879 -0.051,-0.282 0.07,-0.671 0.16,-1.04 2.326,0.11 5.047,-0.255 7.781,0.162 1.054,0.161 2.087,0.589 3.144,0.756 0.598,0.094 1.201,-0.04 1.781,0.068 1.029,0.191 1.901,1.002 2.954,0.799 0.611,-0.762 0.749,-1.657 1.313,-2.471 0.286,-0.412 0.722,-0.776 1.006,-1.196 0.348,-0.512 0.515,-1.111 0.813,-1.512 0.775,-1.043 2.282,-1.466 2.666,-2.865 C 49.022,11.132 47.766,11.104 47.57,10.427 47.701,9.81 48.566,9.86 49.069,9.799 49.943,9.693 50.688,9.386 51.822,9.562 54.129,8.044 56.001,5.816 58.238,4.183 57.07,3.697 55.941,4.34 55.019,4.488 53.793,4.685 52.638,4.662 51.504,4.902 49.481,5.329 47.718,6.487 45.868,7.412 44.706,7.993 43.524,9.059 41.978,8.635 42.1,7.648 43.151,7.45 43.828,6.923 44.778,6.182 45.58,5.223 46.541,4.609 46.81,4.437 47.221,4.396 47.533,4.218 48,3.95 48.335,3.433 48.754,3.25 c 0.563,-0.246 1.367,-0.201 2.139,-0.295 0.87,-0.106 1.693,-0.555 2.41,-0.679 0.353,-0.061 0.746,0.039 1.081,-0.01 1.663,-0.244 3.069,-0.799 4.633,-0.954 1.58,-0.156 3.312,-0.383 5.15,-0.11 0.327,0.048 0.676,0.244 1.02,0.245 0.425,10e-4 0.98,-0.341 1.563,-0.523 0.58,-0.181 1.163,-0.212 1.693,-0.313 0.534,-0.1 1.046,-0.434 1.649,-0.502 1.384,-0.156 2.844,0.22 4.375,0.871 -0.759,1.48 -2.804,0.864 -3.926,1.753 0.197,0.685 1.049,0.567 1.448,0.708 0.529,0.187 1.21,0.53 1.767,0.874 2.005,1.239 3.971,2.855 5.594,4.4 0.647,0.616 1.097,1.328 1.795,1.51 1.358,0.354 2.598,-1.092 4.028,0.069 0.037,1.358 -1.826,0.797 -2.125,1.736 -0.211,0.665 0.59,1.094 0.883,1.561 0.436,0.695 0.477,1.541 1.162,1.897 0.657,1.837 1.684,3.352 2.442,5.171 0.696,1.67 1.092,3.214 1.406,5.371 0.07,0.478 0.316,0.962 0.374,1.438 0.079,0.646 -0.045,1.485 0,2.247 0.043,0.73 0.28,1.44 0.23,2.033 -0.117,1.402 -0.472,2.845 -0.62,4.075 -0.069,0.58 -0.247,1.234 -0.429,1.785 -0.913,2.766 -2.213,5.752 -3.619,7.579 -0.66,0.858 -1.938,1.953 -2.033,2.478 -0.104,0.566 0.66,1.086 1.032,1.686 0.33,0.531 0.645,1.289 1.057,1.962 0.815,1.331 1.589,2.852 1.906,4.413 0.033,0.169 0.166,0.829 -0.182,1.123 z M 82.734,45.121 c 0.947,-2.454 2.612,-4.951 3.041,-8.168 0.101,-0.75 -0.077,-1.576 0.021,-2.332 0.05,-0.385 0.236,-0.746 0.266,-1.105 0.04,-0.509 -0.212,-1.03 -0.163,-1.567 0.141,-1.54 -0.055,-2.309 -0.138,-3.539 -0.06,-0.876 0.155,-1.708 0.062,-2.502 -0.063,-0.536 -0.348,-1.012 -0.438,-1.543 -0.067,-0.392 0.026,-0.78 -0.074,-1.186 -0.123,-0.493 -0.489,-1.02 -0.693,-1.604 -0.2,-0.572 -0.44,-1.098 -0.693,-1.605 -0.572,-1.146 -0.894,-2.401 -1.366,-3.294 -0.287,-0.543 -0.802,-0.92 -1.094,-1.432 -0.481,-0.843 -0.695,-1.734 -1.42,-2.319 -3.565,1.084 -7.045,2.303 -9.642,4.965 0.6,1.032 1.742,1.768 2.739,2.815 0.633,0.665 1.216,1.885 1.933,2.801 0.64,0.817 1.426,1.575 2.016,2.461 0.635,0.958 1.359,1.81 1.889,2.611 0.363,0.55 0.602,1.411 1.054,1.602 0.949,0.401 5.099,-0.556 5.051,0.674 -0.072,1.871 -3.565,0.572 -4.097,1.712 -0.103,0.968 1.056,2.12 0.111,2.902 -1.174,-0.416 -0.74,-1.817 -1.464,-2.509 -0.963,0.32 -2.014,0.717 -2.829,1.298 -1.094,0.781 -2.357,1.684 -3.002,3.144 1.955,2.208 4.279,4.19 6.29,6.365 0.471,1.016 1.154,1.902 2.059,2.652 0.47,-0.296 0.41,-0.852 0.581,-1.297 z M 78.044,30.602 C 78.027,30.492 78,30.387 77.936,30.306 77.256,29.087 75.898,28.461 74.857,27.409 73.748,26.287 72.294,24.111 71.086,22.908 70.897,22.719 70.503,22.553 70.318,22.364 69.59,21.62 68.783,20.021 68.112,19.947 c -0.376,-0.041 -1.027,0.744 -1.452,1.179 -2.159,2.213 -3.921,5.242 -5.441,7.681 0.476,0.581 0.931,1.025 1.773,1.595 0.568,0.383 2.053,0.906 1.669,1.66 -0.18,0.354 -0.929,0.302 -1.142,0.265 -1.285,-0.223 -2.104,-1.596 -3.3,-1.602 -1.984,2.036 -2.518,5.311 -3.911,8.048 -0.201,0.395 -0.612,0.669 -0.796,1.067 -0.78,1.688 -1.015,3.62 -1.412,5.503 0.834,0.83 2.013,0.994 3.15,1.476 1.929,0.817 3.713,2.228 6.359,2.337 0.488,-1.059 0.488,-2.038 0.82,-3.038 0.214,-0.647 0.706,-1.162 0.979,-1.832 0.173,-0.426 0.139,-0.972 0.347,-1.444 0.199,-0.452 0.634,-0.86 0.942,-1.302 0.289,-0.416 0.583,-0.9 0.877,-1.407 0.519,-0.895 1.677,-2.08 1.649,-2.75 -0.043,-1.062 -1.529,-1.429 -2.246,-2.248 0.071,-0.788 -0.848,-1.29 -0.506,-2.009 1.875,0.355 2.741,1.94 4.707,2.479 2.101,-1.978 4.638,-3.238 6.866,-5.003 z M 75.617,8.536 C 74.756,7.812 73.759,7.432 72.677,6.931 71.482,6.378 70.38,5.601 69.247,5.118 66.522,3.956 64.905,4.274 62.996,5.324 61.111,6.361 59.25,7.356 57.9,8.953 c -0.553,0.399 -1.241,0.577 -1.578,1.328 1.063,0.969 2.189,0.793 3.616,1.409 0.305,0.131 0.51,0.485 0.833,0.649 1.262,0.643 3.294,1.111 4.659,1.929 0.754,0.452 1.927,1.826 2.688,1.904 0.419,0.043 1.359,-0.727 1.877,-1.077 0.743,-0.502 1.293,-1.143 1.768,-1.373 1.929,-0.934 4.225,-1.704 6.123,-2.664 0.014,-0.057 0.027,-0.113 0.041,-0.17 -0.582,-0.785 -1.428,-1.609 -2.31,-2.352 z M 63.454,20.624 c 0.908,-0.607 1.824,-1.202 2.438,-2.29 -2.751,-2.713 -7.389,-4.653 -12.158,-5.888 -2.628,2.374 -5.263,4.737 -7.13,8.354 1.971,1.272 4.229,1.831 6.236,2.847 0.869,0.439 1.522,1.229 2.39,1.652 1.5,0.733 2.526,1.342 3.833,2 1.515,-2.143 2.799,-4.66 4.391,-6.675 z m -5.815,8.49 c -3.378,-2.448 -8.219,-4 -12.518,-5.884 -1.065,1.411 -2.259,3.219 -3.282,5.054 -0.589,1.057 -0.821,2.217 -1.303,3.552 -0.392,1.084 -1.205,2.507 -1.028,3.528 0.058,0.334 0.916,1.212 1.478,1.703 1.631,1.423 2.739,2.15 4.462,3.499 0.922,0.722 2.005,1.549 2.773,1.925 0.371,0.182 0.802,0.218 1,0.33 0.802,0.456 1.855,1.546 3.045,1.541 0.927,-1.472 0.922,-3.181 1.419,-4.783 0.367,-1.185 1.122,-2.223 1.537,-3.406 0.317,-0.902 0.299,-1.972 0.694,-2.889 0.191,-0.443 0.607,-0.745 0.836,-1.237 0.402,-0.864 0.611,-1.849 1.079,-2.617 -0.017,-0.134 -0.081,-0.24 -0.192,-0.316 z"
   id="path51"
   inkscape:connector-curvature="0"
   style="fill:#ef7d00;fill-rule:evenodd;stroke:#ef7d00;stroke-width:0.1459" />
		<path
   clip-rule="evenodd"
   d="m 31.84,26.509 c -1.732,4.78 -1.907,10.475 -1.813,15.024 l -0.41,0.075 -0.372,0.187 c -0.367,-0.519 -0.156,-1.469 -0.233,-2.394 -0.073,-0.877 -0.191,-0.958 -0.061,-1.992 0.302,-2.399 -0.542,-5.708 0.196,-8.671 0.246,-0.986 0.293,-2.229 0.606,-3.27 0.147,-0.491 0.604,-0.956 0.918,-1.577 0.334,-0.663 0.87,-1.992 1.659,-1.668 1.023,0.418 -0.343,2.721 -0.456,3.396 0.111,0.077 0.176,0.183 0.193,0.316 l -0.401,0.173 0.174,0.401 z"
   id="path53"
   inkscape:connector-curvature="0"
   style="fill:#ef7d00;fill-rule:evenodd;stroke:#ef7d00;stroke-width:0.1459" />
		<g
   id="g55">
			<path
   clip-rule="evenodd"
   d="m 29.617,41.608 c 0.214,0.99 0.306,2.021 0.439,3.022"
   id="path57"
   inkscape:connector-curvature="0"
   style="fill:#ef7d00;fill-rule:evenodd;stroke:#ef7d00;stroke-width:0.1459" />
			<path
   clip-rule="evenodd"
   d="m 31.667,26.108 c 0.266,0.122 0.594,0.148 0.804,0.37 0.402,1.613 1.143,2.978 2.1,4.3"
   id="path59"
   inkscape:connector-curvature="0"
   style="fill:#ef7d00;fill-rule:evenodd;stroke:#ef7d00;stroke-width:0.1459" />
		</g>
	</g>
</g>

</svg>